<?xml version="1.0" encoding="UTF-8"?>
<svg width="64px" height="64px" viewBox="0 0 64 64" version="1.1" xmlns="http://www.w3.org/2000/svg" xmlns:xlink="http://www.w3.org/1999/xlink">
    <!-- Generator: Sketch 49.1 (51147) - http://www.bohemiancoding.com/sketch -->
    <title>glasses</title>
    <desc>Created with Sketch.</desc>
    <defs></defs>
    <g id="glasses" stroke="none" stroke-width="1" fill="none" fill-rule="evenodd">
        <rect id="Rectangle" x="0" y="0" width="64" height="64"></rect>
        <g id="Group-3" transform="translate(3.562500, 8.666667)">
            <path d="M25.4499901,35.2234218 C26.4538656,35.247878 27.2023862,36.0701851 27.2023862,37.0657895 L27.2023862,37.3122753 C27.3072368,37.6417779 27.6168451,37.875 27.9736842,37.875 C28.3305233,37.875 28.6401316,37.6417779 28.7449822,37.3122753 L28.7449822,37.0657895 C28.7449822,36.0708166 29.495706,35.2496333 30.4973648,35.2235032 C31.3750888,29.9615418 35.9494115,25.9506579 41.4605263,25.9506579 C43.651905,25.9506579 45.6951687,26.5848138 47.4168121,27.6796204 C47.0222399,26.114467 43.0560745,10.3831869 42.7384411,9.12498744 C42.1498676,6.79354823 41.9273419,6.62889526 40.2741632,7.12387772 L39.3161821,7.41070927 L37.9937515,2.45686885 C38.0157258,1.71933164 38.4981178,1.04349732 39.2418204,0.810335506 C43.8018224,-0.619292786 47.494116,1.68581681 48.6742589,6.37737587 C48.9898443,7.631959 55.9473684,35.0559528 55.9473684,35.3182566 L55.9473684,38.8133224 C55.9473684,39.7970796 55.1498756,40.5945724 54.1661184,40.5945724 L52.0038145,40.5945724 C50.528821,45.0034852 46.3657386,48.1809211 41.4605263,48.1809211 C36.470292,48.1809211 32.2481372,44.8923816 30.8429729,40.3642136 C30.0751482,41.0327076 29.0716883,41.4375 27.9736842,41.4375 C26.8756801,41.4375 25.8722203,41.0327076 25.1043956,40.3642136 C23.6992312,44.8923816 19.4770764,48.1809211 14.4868421,48.1809211 C9.58162979,48.1809211 5.41854739,45.0034852 3.9435539,40.5945724 L1.78125,40.5945724 C0.797492789,40.5945724 0,39.7970796 0,38.8133224 L0,35.3182566 C5.55111512e-16,35.0430836 0.0631489811,34.7756039 0.181781103,34.5339097 C0.370269286,33.7861865 6.96326532,7.63480802 7.28107593,6.37590647 C8.46688994,1.67869682 12.1506648,-0.620069461 16.7131441,0.810335506 C17.4606975,1.0447046 17.9442272,1.72634223 17.9615174,2.46833031 L16.6008069,7.41070927 L15.6428259,7.12387772 C13.9896471,6.62889526 13.7671214,6.79354823 13.1785479,9.12498744 C12.8981833,10.235559 9.61315986,23.2650532 8.49436392,27.7027337 C10.2235337,26.5937442 12.2800875,25.9506579 14.4868421,25.9506579 C19.9979285,25.9506579 24.5722324,29.9615005 25.4499901,35.2234218 Z" id="Combined-Shape" fill="#FFFFFF"></path>
            <path d="M5.0438854,37.2991936 L2.01368038,36.5353333 C2.24011803,35.6370637 2.24011803,35.6370637 3.14588775,32.0439971 C3.99505396,28.6754966 4.8442424,25.3069958 5.63684973,22.16306 C7.56803758,14.5028602 8.84946139,9.42077055 9.179027,8.11530547 C10.2813947,3.74864074 12.6035127,1.90793844 16.826006,3.17220595 L15.9296574,6.16589669 C13.6533887,5.48435326 12.9193678,6.0661988 12.2089671,8.88021606 C11.87953,10.1851721 10.598063,15.2674329 8.66756895,22.9248807 C7.8744341,26.0709089 7.02524944,29.4393948 6.17608687,32.8078809 C5.27032066,36.4009334 5.27032066,36.4009334 5.0438854,37.2991936 Z M50.8731036,37.2991936 C50.6466684,36.4009334 50.6466684,36.4009334 49.7409022,32.8078809 C48.8917396,29.4393948 48.0425549,26.0709089 47.2494201,22.9248807 C45.318926,15.2674329 44.0374591,10.1851721 43.708022,8.88021606 C42.9976212,6.0661988 42.2636003,5.48435326 39.9873316,6.16589669 L39.090983,3.17220595 C43.3134763,1.90793844 45.6355943,3.74864074 46.737962,8.11530547 C47.0675276,9.42077055 48.3489514,14.5028602 50.2801393,22.16306 C51.0727466,25.3069958 51.9219351,28.6754966 52.7711013,32.0439971 C53.676871,35.6370637 53.676871,35.6370637 53.9033086,36.5353333 L50.8731036,37.2991936 Z" id="Combined-Shape" fill="#E9F4F5" fill-rule="nonzero"></path>
            <path d="M6.05756579,38.8133224 C6.05756579,39.2447948 5.70778825,39.5945724 5.27631579,39.5945724 L1.78125,39.5945724 C1.34977754,39.5945724 1,39.2447948 1,38.8133224 L1,35.3182566 C1,34.8867841 1.34977754,34.5370066 1.78125,34.5370066 L5.27631579,34.5370066 L6.05756579,38.8133224 Z M49.8898026,38.8133224 L50.6710526,34.5370066 L54.1661184,34.5370066 C54.5975909,34.5370066 54.9473684,34.8867841 54.9473684,35.3182566 L54.9473684,38.8133224 C54.9473684,39.2447948 54.5975909,39.5945724 54.1661184,39.5945724 L50.6710526,39.5945724 C50.2395802,39.5945724 49.8898026,39.2447948 49.8898026,38.8133224 Z" id="Combined-Shape" fill="#FFC55D"></path>
            <path d="M53.1312036,34.5370066 L53.0431466,34.1878381 C52.7034824,32.8409693 52.7034824,32.8409693 52.2222915,30.9328638 C51.3731309,27.5655956 50.5239703,24.1981731 49.7304875,21.0513297 C47.7981941,13.3881208 46.5166206,8.30421962 46.1891753,7.00248868 C45.3832889,3.79875461 43.1916244,2.25749813 40.0084105,3.25548294 C39.5966978,3.38456099 39.1583003,3.15544033 39.0292222,2.74372763 C38.9001442,2.33201494 39.1292648,1.89361743 39.5409775,1.76453938 C43.6583853,0.473670939 46.6952653,2.6093131 47.7044702,6.62132233 C48.0318025,7.92260452 49.3134146,13.0066588 51.2464974,20.6729985 C52.0390439,23.816128 52.8882012,27.1835374 53.7373585,30.5507929 C54.2185477,32.4588919 54.2185477,32.4588919 54.5582107,33.8057555 C54.7618797,34.6133555 54.8027163,34.7752833 54.8398338,34.9224614 C54.9081713,35.0385336 54.9473684,35.1738176 54.9473684,35.3182566 L54.9473684,38.8133224 C54.9473684,39.2447948 54.5975909,39.5945724 54.1661184,39.5945724 L50.6710526,39.5945724 C50.2395802,39.5945724 49.8898026,39.2447948 49.8898026,38.8133224 C50.410636,38.5725126 50.6710526,38.312096 50.6710526,38.0320724 L53.3848684,38.0320724 L53.3848684,36.0995066 L50.6710526,36.0995066 L50.6710526,34.5370066 L53.1312035,34.5370066 Z M1.1204531,34.9012951 C1.31448596,34.1315742 1.36101403,33.9470037 2.21758227,30.5491128 C3.06674757,27.1806159 3.91593506,23.8121188 4.7085413,20.6681873 C6.63968867,13.0081481 7.92112327,7.92601567 8.25065675,6.62067786 C9.2652879,2.60155246 12.2947664,0.473102572 16.413987,1.76453938 C16.8256997,1.89361743 17.0548204,2.33201494 16.9257423,2.74372763 C16.7966643,3.15544033 16.3582668,3.38456099 15.9465541,3.25548294 C12.7609939,2.25676256 10.5763723,3.79163324 9.76562678,7.00313315 C9.43615756,8.30821643 8.15470137,13.3904345 6.22416686,21.0480427 C5.43103091,24.1940754 4.5818453,27.5625649 3.73268182,30.9310547 C3.17251123,33.153176 2.95877748,34.001029 2.82366516,34.5370066 L5.27631579,34.5370066 L5.27631579,36.0995066 L2.5625,36.0995066 L2.5625,38.0320724 L5.27631579,38.0320724 C5.08583899,38.4541858 5.34625565,38.7146025 6.05756579,38.8133224 C6.05756579,39.2447948 5.70778825,39.5945724 5.27631579,39.5945724 L1.78125,39.5945724 C1.34977754,39.5945724 1,39.2447948 1,38.8133224 L1,35.3182566 C1,35.1649467 1.04415969,35.0219509 1.1204531,34.9012951 Z" id="Combined-Shape" fill="#2B2B2B" fill-rule="nonzero"></path>
            <path d="M14.4868421,47.1809211 C8.90040919,47.1809211 4.37171053,42.6522224 4.37171053,37.0657895 C4.37171053,31.4793566 8.90040919,26.9506579 14.4868421,26.9506579 C20.073275,26.9506579 24.6019737,31.4793566 24.6019737,37.0657895 C24.6019737,42.6522224 20.073275,47.1809211 14.4868421,47.1809211 Z M41.4605263,47.1809211 C35.8740934,47.1809211 31.3453947,42.6522224 31.3453947,37.0657895 C31.3453947,31.4793566 35.8740934,26.9506579 41.4605263,26.9506579 C47.0469592,26.9506579 51.5756579,31.4793566 51.5756579,37.0657895 C51.5756579,42.6522224 47.0469592,47.1809211 41.4605263,47.1809211 Z" id="Combined-Shape" fill="#BDCFD1"></path>
            <path d="M14.4868421,47.1809211 C8.90040919,47.1809211 4.37171053,42.6522224 4.37171053,37.0657895 C4.37171053,31.4793566 8.90040919,26.9506579 14.4868421,26.9506579 C20.073275,26.9506579 24.6019737,31.4793566 24.6019737,37.0657895 C24.6019737,42.6522224 20.073275,47.1809211 14.4868421,47.1809211 Z M14.4868421,45.6184211 C19.2103301,45.6184211 23.0394737,41.7892775 23.0394737,37.0657895 C23.0394737,32.3423015 19.2103301,28.5131579 14.4868421,28.5131579 C9.76335411,28.5131579 5.93421053,32.3423015 5.93421053,37.0657895 C5.93421053,41.7892775 9.76335411,45.6184211 14.4868421,45.6184211 Z M41.4605263,47.1809211 C35.8740934,47.1809211 31.3453947,42.6522224 31.3453947,37.0657895 C31.3453947,31.4793566 35.8740934,26.9506579 41.4605263,26.9506579 C47.0469592,26.9506579 51.5756579,31.4793566 51.5756579,37.0657895 C51.5756579,42.6522224 47.0469592,47.1809211 41.4605263,47.1809211 Z M41.4605263,45.6184211 C46.1840143,45.6184211 50.0131579,41.7892775 50.0131579,37.0657895 C50.0131579,32.3423015 46.1840143,28.5131579 41.4605263,28.5131579 C36.7370383,28.5131579 32.9078947,32.3423015 32.9078947,37.0657895 C32.9078947,41.7892775 36.7370383,45.6184211 41.4605263,45.6184211 Z" id="Combined-Shape" fill="#2B2B2B" fill-rule="nonzero"></path>
            <path d="M29.7449822,37.0657895 C29.7449822,36.6002534 30.0810948,36.2228618 30.5466309,36.2228618 C31.0121669,36.2228618 31.3453947,36.6002534 31.3453947,37.0657895 C31.3453947,38.9279338 29.8358285,40.4375 27.9736842,40.4375 C26.1115399,40.4375 24.6019737,38.9279338 24.6019737,37.0657895 C24.6019737,36.6002534 24.9383946,36.2228618 25.4039307,36.2228618 C25.8694667,36.2228618 26.2023862,36.6002534 26.2023862,37.0657895 C26.2023862,37.1986111 26.2023862,37.3443197 26.2023862,37.4360114 C26.3732401,38.2576434 27.1013665,38.875 27.9736842,38.875 C28.8460019,38.875 29.5741283,38.2576434 29.7449822,37.4360114 C29.7449822,37.3152059 29.7449822,37.1986111 29.7449822,37.0657895 Z" id="Combined-Shape" fill="#2B2B2B" fill-rule="nonzero"></path>
            <path d="M14.4868421,30.9967105 C18.2111307,30.9967105 21.2302632,34.015843 21.2302632,37.7401316 C21.2302632,40.533348 18.9659138,42.7976974 16.1726974,42.7976974 C13.3794809,42.7976974 11.1151316,40.533348 11.1151316,37.7401316 C11.1151316,35.8779873 12.6246978,34.3684211 14.4868421,34.3684211 C16.3489864,34.3684211 17.8585526,35.8779873 17.8585526,37.7401316 C17.8585526,38.2056677 17.5225429,38.5830592 17.0570068,38.5830592 C16.5914708,38.5830592 16.2581401,38.2056677 16.2581401,37.7401316 C16.2581401,37.60731 16.2581401,37.5069173 16.2581401,37.3699096 C16.0872862,36.5482776 15.3591598,35.9309211 14.4868421,35.9309211 C13.4876427,35.9309211 12.6776316,36.7409322 12.6776316,37.7401316 C12.6776316,39.6704031 14.2424258,41.2351974 16.1726974,41.2351974 C18.1029689,41.2351974 19.6677632,39.6704031 19.6677632,37.7401316 C19.6677632,34.8787879 17.3481858,32.5592105 14.4868421,32.5592105 C11.7640853,32.5592105 9.53188565,34.6595356 9.32204334,37.3283858 C9.32204334,37.5058187 9.32204334,37.5905925 9.32204334,37.7401316 C9.32204334,38.2056677 8.99117084,38.5830592 8.52563477,38.5830592 C8.06009869,38.5830592 7.74342105,38.2056677 7.74342105,37.7401316 C7.74342105,34.015843 10.7625535,30.9967105 14.4868421,30.9967105 Z" id="Combined-Shape" fill="#FFFFFF" fill-rule="nonzero"></path>
            <path d="M41.4605263,30.9967105 C45.1848149,30.9967105 48.2039474,34.015843 48.2039474,37.7401316 C48.2039474,40.533348 45.939598,42.7976974 43.1463816,42.7976974 C40.3531651,42.7976974 38.0888158,40.533348 38.0888158,37.7401316 C38.0888158,35.8779873 39.598382,34.3684211 41.4605263,34.3684211 C43.3226706,34.3684211 44.8322368,35.8779873 44.8322368,37.7401316 C44.8322368,38.2056677 44.4947719,38.5830592 44.0292358,38.5830592 C43.5636998,38.5830592 43.2318243,38.2056677 43.2318243,37.7401316 C43.2318243,37.60731 43.2318243,37.5158285 43.2318243,37.3699096 C43.0609704,36.5482776 42.332844,35.9309211 41.4605263,35.9309211 C40.4613269,35.9309211 39.6513158,36.7409322 39.6513158,37.7401316 C39.6513158,39.6704031 41.21611,41.2351974 43.1463816,41.2351974 C45.0766531,41.2351974 46.6414474,39.6704031 46.6414474,37.7401316 C46.6414474,34.8787879 44.32187,32.5592105 41.4605263,32.5592105 C38.7377695,32.5592105 36.5055699,34.6595356 36.2957276,37.3283858 C36.2957276,37.5253499 36.2957276,37.6536429 36.2957276,37.803182 C36.2957276,38.268718 35.9710693,38.5830592 35.5252075,38.5830592 C35.0793457,38.5830592 34.7171053,38.2056677 34.7171053,37.7401316 C34.7171053,34.015843 37.7362377,30.9967105 41.4605263,30.9967105 Z" id="Combined-Shape" fill="#FFFFFF" fill-rule="nonzero"></path>
        </g>
    </g>
</svg>