<?xml version="1.0" encoding="UTF-8"?>
<svg width="64px" height="64px" viewBox="0 0 64 64" version="1.1" xmlns="http://www.w3.org/2000/svg" xmlns:xlink="http://www.w3.org/1999/xlink">
    <!-- Generator: Sketch 49.1 (51147) - http://www.bohemiancoding.com/sketch -->
    <title>trend</title>
    <desc>Created with Sketch.</desc>
    <defs>
        <path d="M16,30 C15.0795254,30 14.3333333,30.7461921 14.3333333,31.6666667 L14.3333333,47 C14.3333333,47.9204746 15.0795254,48.6666667 16,48.6666667 L20.6666667,48.6666667 C21.5871412,48.6666667 22.3333333,47.9204746 22.3333333,47 L22.3333333,31.6666667 C22.3333333,30.7461921 21.5871412,30 20.6666667,30 L16,30 Z" id="path-1"></path>
        <path d="M29.3333333,23.3333333 C28.4128588,23.3333333 27.6666667,24.0795254 27.6666667,25 L27.6666667,47 C27.6666667,47.9204746 28.4128588,48.6666667 29.3333333,48.6666667 L34,48.6666667 C34.9204746,48.6666667 35.6666667,47.9204746 35.6666667,47 L35.6666667,25 C35.6666667,24.0795254 34.9204746,23.3333333 34,23.3333333 L29.3333333,23.3333333 Z" id="path-2"></path>
        <path d="M48.3905192,18.4588259 L48.3905192,47 C48.3905192,47.9204746 47.6443272,48.6666667 46.7238526,48.6666667 L41.8880109,48.6666667 C40.9675363,48.6666667 40.2213442,47.9204746 40.2213442,47 L40.2213442,18.4588259 L38.6267157,18.4588259 C37.7062411,18.4588259 36.960049,17.7126338 36.960049,16.7921592 C36.960049,16.3483583 37.1370516,15.9228849 37.4518282,15.6100352 L44.4379628,8.66666667 L51.2313305,15.6281379 C51.8742017,16.2869171 51.8613057,17.3421133 51.2025265,17.9849845 C50.8912178,18.2887757 50.473479,18.4588259 50.0385052,18.4588259 L48.3905192,18.4588259 Z" id="path-3"></path>
    </defs>
    <g id="trend" stroke="none" stroke-width="1" fill="none" fill-rule="evenodd">
        <rect id="Rectangle" x="0" y="0" width="64" height="64"></rect>
        <path d="M10.8333333,52.3333333 L53.1666667,52.3333333 C54.1791887,52.3333333 55,53.1541446 55,54.1666667 C55,55.1791887 54.1791887,56 53.1666667,56 L10.8333333,56 C9.82081129,56 9,55.1791887 9,54.1666667 C9,53.1541446 9.82081129,52.3333333 10.8333333,52.3333333 Z M16,29 L20.6666667,29 C22.139426,29 23.3333333,30.1939073 23.3333333,31.6666667 L23.3333333,47 C23.3333333,48.4727593 22.139426,49.6666667 20.6666667,49.6666667 L16,49.6666667 C14.5272407,49.6666667 13.3333333,48.4727593 13.3333333,47 L13.3333333,31.6666667 C13.3333333,30.1939073 14.5272407,29 16,29 Z M29.3333333,22.3333333 L34,22.3333333 C35.4727593,22.3333333 36.6666667,23.5272407 36.6666667,25 L36.6666667,47 C36.6666667,48.4727593 35.4727593,49.6666667 34,49.6666667 L29.3333333,49.6666667 C27.860574,49.6666667 26.6666667,48.4727593 26.6666667,47 L26.6666667,25 C26.6666667,23.5272407 27.860574,22.3333333 29.3333333,22.3333333 Z M49.3905192,47 C49.3905192,48.4727593 48.1966119,49.6666667 46.7238526,49.6666667 L41.8880109,49.6666667 C40.4152516,49.6666667 39.2213442,48.4727593 39.2213442,47 L39.2213442,19.4588259 L38.6267157,19.4588259 C37.1539564,19.4588259 35.960049,18.2649185 35.960049,16.7921592 C35.960049,16.0820778 36.2432531,15.4013203 36.7468957,14.9007608 L44.4488249,7.2459795 L51.9470257,14.9297251 C52.9756196,15.9837719 52.954986,17.6720857 51.9009393,18.7006797 C51.4028454,19.1867457 50.7344632,19.4588259 50.0385052,19.4588259 L49.3905192,19.4588259 L49.3905192,47 Z" id="Combined-Shape" fill="#FFFFFF" fill-rule="nonzero"></path>
        <path d="M10.8333333,53.3333333 C10.373096,53.3333333 10,53.7064294 10,54.1666667 C10,54.626904 10.373096,55 10.8333333,55 L53.1666667,55 C53.626904,55 54,54.626904 54,54.1666667 C54,53.7064294 53.626904,53.3333333 53.1666667,53.3333333 L10.8333333,53.3333333 Z" id="Rectangle-82" fill="#2B2B2B"></path>
        <g id="Rectangle-83">
            <use fill="#FFDC64" fill-rule="evenodd" xlink:href="#path-1"></use>
            <path stroke="#2B2B2B" stroke-width="1.66666667" d="M16,30.8333333 C15.5397627,30.8333333 15.1666667,31.2064294 15.1666667,31.6666667 L15.1666667,47 C15.1666667,47.4602373 15.5397627,47.8333333 16,47.8333333 L20.6666667,47.8333333 C21.126904,47.8333333 21.5,47.4602373 21.5,47 L21.5,31.6666667 C21.5,31.2064294 21.126904,30.8333333 20.6666667,30.8333333 L16,30.8333333 Z"></path>
        </g>
        <g id="Rectangle-83-Copy">
            <use fill="#ED6969" fill-rule="evenodd" xlink:href="#path-2"></use>
            <path stroke="#2B2B2B" stroke-width="1.66666667" d="M29.3333333,24.1666667 C28.873096,24.1666667 28.5,24.5397627 28.5,25 L28.5,47 C28.5,47.4602373 28.873096,47.8333333 29.3333333,47.8333333 L34,47.8333333 C34.4602373,47.8333333 34.8333333,47.4602373 34.8333333,47 L34.8333333,25 C34.8333333,24.5397627 34.4602373,24.1666667 34,24.1666667 L29.3333333,24.1666667 Z"></path>
        </g>
        <g id="Combined-Shape">
            <use fill="#8497DD" fill-rule="evenodd" xlink:href="#path-3"></use>
            <path stroke="#2B2B2B" stroke-width="1.66666667" d="M44.4289111,9.85057264 L38.0392719,16.2010972 C37.8818836,16.3575221 37.7933824,16.5702588 37.7933824,16.7921592 C37.7933824,17.2523965 38.1664784,17.6254925 38.6267157,17.6254925 L41.0546776,17.6254925 L41.0546776,47 C41.0546776,47.4602373 41.4277736,47.8333333 41.8880109,47.8333333 L46.7238526,47.8333333 C47.1840899,47.8333333 47.5571859,47.4602373 47.5571859,47 L47.5571859,17.6254925 L50.0385052,17.6254925 C50.2559921,17.6254925 50.4648615,17.5404675 50.6205158,17.3885719 C50.9499054,17.0671362 50.9563534,16.5395382 50.6349178,16.2101486 L44.4289111,9.85057264 Z"></path>
        </g>
    </g>
</svg>