<?xml version="1.0" encoding="UTF-8"?>
<svg width="64px" height="64px" viewBox="0 0 64 64" version="1.1" xmlns="http://www.w3.org/2000/svg" xmlns:xlink="http://www.w3.org/1999/xlink">
    <!-- Generator: Sketch 49.1 (51147) - http://www.bohemiancoding.com/sketch -->
    <title>DNA</title>
    <desc>Created with Sketch.</desc>
    <defs></defs>
    <g id="DNA" stroke="none" stroke-width="1" fill="none" fill-rule="evenodd">
        <rect id="Rectangle" x="0" y="0" width="64" height="64"></rect>
        <g id="Group" transform="translate(32.991867, 32.503369) rotate(-45.000000) translate(-32.991867, -32.503369) translate(3.991867, 18.003369)">
            <path d="M16.1938415,17.3101269 C15.904343,16.9156967 15.6083625,16.5048203 15.3051697,16.0770099 C10.4074954,22.8002195 7.3348889,25.0789566 2.6992718,25.2333786 C1.59163303,25.2702764 0.531166583,24.3023182 0.512947923,23.1748153 C0.470563409,20.551754 0.471999203,13.6346557 0.517108775,2.3920965 C0.517094017,1.36198474 1.33790531,0.541173451 2.35042735,0.541173451 C7.13487584,0.541173451 10.2908609,2.82448467 15.3049426,9.7036606 C20.5008302,2.37211336 23.5785774,0.0137328185 28.213916,0.17349756 C32.7378518,0.329422615 35.7053983,2.60134937 40.9991606,9.76123193 C46.2119695,2.66539499 49.1199995,0.37785645 53.4693565,0.176431198 C54.6140196,0.123420127 55.7880351,1.03967617 55.7833012,2.26974403 C55.7821497,2.56898089 55.7812104,3.03431754 55.7804835,3.66568479 C56.132886,3.67161805 56.4453398,3.74909939 56.7088307,3.90758815 C57.8493189,4.59358755 57.8487783,5.22795409 57.41528,11.1249798 C57.3426313,12.1132461 57.2983055,12.7692984 57.2616013,13.4396826 C57.2275658,14.061323 57.2046308,14.6289053 57.1931612,15.1621948 C57.1602879,16.6906688 57.1712151,18.0498315 57.2172194,20.2930395 C57.2670396,22.7223164 57.2736385,23.2957194 57.2438238,24.0982473 C57.1848388,25.6859552 57.045962,26.3296517 56.1816033,26.6066578 C55.5981952,26.7936261 54.3641832,26.3663131 52.8668381,25.5732385 C49.3425046,25.2742842 46.6201891,23.2790636 42.5910572,18.1240082 C39.2403883,23.1139816 33.1198299,28.7144067 29.353608,28.7643333 C25.0641105,28.8211967 17.2743976,21.9533655 16.1938415,17.3101269 Z" id="Combined-Shape" fill="#FFFFFF" fill-rule="nonzero"></path>
            <path d="M44.0941952,14.3524673 C46.5893645,10.6727291 54.0472816,3.47363727 56.1933924,4.76451489 C57.1725578,5.35347917 56.2913887,10.5842716 56.1933924,15.1406925 C56.0766028,20.5709244 56.5802589,25.4288008 55.8764165,25.6543653 C54.5819913,26.0691974 41.5990258,18.0322054 44.0941952,14.3524673 Z" id="Path-51" fill="#07EBF5"></path>
            <path d="M17.343392,15.2947513 C19.643927,11.9483526 22.9591271,6.25925815 28.8802885,5.71395122 C34.8014499,5.16864428 41.0596922,15.7821898 42.2240761,16.8511301 C40.1061979,20.2512793 33.4931222,27.7093703 29.3403527,27.7644211 C25.1875833,27.819472 15.042857,18.64115 17.343392,15.2947513 Z" id="Path-49" fill="#FFC55D"></path>
            <path d="M22.457265,5.21667664 L22.457265,20.4651852 L22.3505988,20.4651852 C24.2017753,22.1900589 25.8685546,22.9338123 27.7991453,22.9463577 L27.7991453,2.83399236 C25.9057054,2.84629635 24.2660214,3.56193755 22.457265,5.21667664 Z M20.7905983,6.9448714 C19.6201697,8.28769598 18.3432158,9.99540206 16.8677979,12.1192528 C16.7274167,12.3213303 16.5768143,12.5386166 16.3333113,12.890175 C16.5768143,13.2417334 16.7274167,13.4590197 16.8677979,13.6610973 C18.3432158,15.784948 19.6201697,17.4926541 20.7905983,18.8354787 L20.7905983,6.9448714 Z M29.465812,2.99477465 L29.465812,22.7855754 C31.2679419,22.4151198 32.8973061,21.3797439 34.8076923,19.3893921 L34.8076923,6.39095794 C32.8973061,4.40060617 31.2679419,3.36523023 29.465812,2.99477465 Z M36.474359,20.0624452 L36.474359,20.0923314 L36.4471177,20.0923314 C33.5728319,23.2416445 31.2497207,24.5016246 28.1794698,24.6074459 C23.6087351,24.764984 20.6307634,21.9991032 15.4990055,14.6119837 C15.4413907,14.5290477 15.3820661,14.4435674 15.3154279,14.3474732 C10.3028141,21.4311306 7.32763456,24.0786436 2.66597819,24.233933 C2.11985244,24.2521256 1.52203589,23.7291663 1.5128174,23.158659 C1.47057528,20.54441 1.47203751,13.627115 1.51710073,2.39610886 C1.51711291,2.39307174 1.51714133,2.39003849 1.5171859,2.38700917 C1.51712471,2.38284902 1.51709402,2.37868149 1.51709402,2.37450678 C1.51709402,1.91426949 1.89019006,1.54117345 2.35042735,1.54117345 C7.15411726,1.54117345 10.1992814,4.20500857 15.3153725,11.4329568 C15.3820332,11.33683 15.4413747,11.2513253 15.4990055,11.1683664 C20.6307634,3.78124691 23.6087351,1.01536605 28.1794698,1.17290411 C32.6932216,1.32847816 35.5921337,3.97860769 41.0016554,11.45934 C46.3115195,4.07273142 49.1753783,1.37636358 53.5156184,1.17536054 C54.0685801,1.14975206 54.7858391,1.60836338 54.7833087,2.26589562 C54.7766995,3.98324888 54.777073,11.1543432 54.784435,23.774121 L54.7844308,23.777348 C54.7859958,24.2357553 54.4167404,24.6097015 53.9578465,24.6134157 C49.4293735,24.6500685 46.4703386,21.9273477 41.0016687,14.3209916 C39.2833116,16.6972781 37.8182854,18.5861372 36.474359,20.0624452 Z M36.474359,8.27674019 L36.474359,17.5036099 C37.5223619,16.2353201 38.671599,14.7094994 39.9783493,12.890175 C38.671599,11.0708507 37.5223619,9.54502996 36.474359,8.27674019 Z M48.3141604,20.5233813 L48.3141604,5.254923 C46.5491475,6.83843056 44.5949618,9.29317115 42.02685,12.890175 C44.5801163,16.4663663 46.5424887,18.9299228 48.3141604,20.5233813 Z M49.9808271,21.8008579 C51.0187068,22.4504157 52.0333078,22.8014017 53.1172701,22.9099601 C53.1110417,11.9669249 53.1102824,5.29034496 53.1149963,2.87672111 C52.0249082,2.99382812 51.0125674,3.34201483 49.9808271,3.98326956 L49.9808271,21.8008579 Z M6.77350427,21.3022142 L6.77350427,4.47551605 C5.61100004,3.74630014 4.4517605,3.35799151 3.18042898,3.24399316 C3.14164921,13.208447 3.1386003,19.6407782 3.17120545,22.5330597 C4.45126938,22.4137764 5.61208458,22.0274414 6.77350427,21.3022142 Z M8.44017094,20.0331185 C10.1550421,18.4998858 11.9894863,16.1907607 14.3031006,12.8901984 C11.9975844,9.60165177 10.1586407,7.28769755 8.44017094,5.74852838 L8.44017094,20.0331185 Z" id="Combined-Shape" fill="#2B2B2B" fill-rule="nonzero"></path>
        </g>
    </g>
</svg>