<?xml version="1.0" encoding="UTF-8"?>
<svg width="64px" height="64px" viewBox="0 0 64 64" version="1.1" xmlns="http://www.w3.org/2000/svg" xmlns:xlink="http://www.w3.org/1999/xlink">
    <!-- Generator: Sketch 49.1 (51147) - http://www.bohemiancoding.com/sketch -->
    <title>palette</title>
    <desc>Created with Sketch.</desc>
    <defs>
        <path d="M53.6142838,31.4479295 C53.0453067,21.299423 45.009093,12.8502517 34.9073682,11.7901867 C32.0155803,11.4705516 29.4355905,11.4472813 28.4612519,12.9359781 C27.5649231,14.1363883 27.7597667,16.1629548 29.622597,17.1684009 C32.8572903,18.6104365 34.8604658,21.9698007 34.6032867,25.5007383 C34.2993259,29.7487148 30.7216066,33.1860889 26.4579558,33.3264341 C23.3713243,33.4199977 20.5731,31.9000728 18.9751654,29.288855 C18.4685238,28.4625782 17.6813122,27.9403829 16.8005371,27.8468193 C12.6538407,27.6987575 11.1885347,30.9100599 11.7262838,34.0902548 C12.4433228,44.8232922 21.4382008,53.4129293 32.2024662,53.6467176 C45.2117737,53.5687078 54.1832609,43.6230025 53.6142838,31.4479295 Z" id="path-1"></path>
    </defs>
    <g id="palette" stroke="none" stroke-width="1" fill="none" fill-rule="evenodd">
        <rect id="Rectangle" x="0" y="0" width="64" height="64"></rect>
        <path d="M16.9629866,25.1865304 C18.7754732,25.3741733 20.3028045,26.3525921 21.2497342,27.8969327 C22.3518464,29.6979169 24.2546415,30.7253314 26.3702254,30.661211 C29.270161,30.5657547 31.7369559,28.1958459 31.9436655,25.3070223 C32.1195147,22.8927025 30.7419037,20.5870442 28.4703577,19.5713834 C25.2965686,17.8646709 24.321047,14.0905918 26.2637242,11.4246758 C27.8128665,9.11037248 30.2996256,8.59797286 35.1856773,9.13808282 C46.5866251,10.334487 55.6344597,19.8421629 56.2772468,31.3079468 C56.931232,45.3004185 46.4545835,56.2279929 32.1445628,56.3127555 C20.0450841,56.0499679 9.94686499,46.4508845 9.0745236,34.3969895 C8.24631421,29.0934654 11.5224726,24.9900012 16.9629866,25.1865304 Z" id="Shape" fill="#FFFFFF" fill-rule="nonzero"></path>
        <path d="M50.7601838,33.1042323 C50.7601838,41.0842963 40.6617741,45.4171908 32.8486765,45.4171908 C25.0355789,45.4171908 13.2254249,42.2937024 13.2254249,34.3138797 C13.2254249,29.7321552 13.1900097,17.3596644 19.9051124,13.3436312 C26.6202151,9.32759797 34.5848816,18.4647947 40.6296854,20.5041402 C46.6744892,22.5434857 50.7601838,25.1241683 50.7601838,33.1042323 Z" id="Shape" fill="#FFF9ED" fill-rule="nonzero" transform="translate(31.992802, 28.876121) scale(-1, -1) rotate(-210.000000) translate(-31.992802, -28.876121) "></path>
        <g id="Shape" fill-rule="nonzero">
            <use fill="#FFC55D" fill-rule="evenodd" xlink:href="#path-1"></use>
            <path stroke="#2B2B2B" stroke-width="1.66666667" d="M54.4463105,31.4012819 L54.4467086,31.4090279 C55.0478722,44.2728318 45.4751181,54.400477 32.1843714,54.4798544 C20.9882145,54.236686 11.640602,45.3093237 10.9046145,34.2291935 C10.2114024,30.1296057 12.4739492,26.8584699 16.8885656,27.0181485 C18.0335713,27.1397808 19.0470765,27.8119165 19.6859682,28.8538792 C21.1310927,31.215387 23.6514487,32.5777903 26.43054,32.4935519 C30.2680331,32.3672343 33.4985854,29.2634401 33.7721551,25.4402021 C34.0040429,22.2565009 32.194673,19.2274314 29.2267866,17.9017347 C27.0533078,16.7286189 26.4991133,14.1709385 27.7639832,12.479622 C28.8650537,10.7972911 31.0506266,10.5254849 34.9943398,10.9614043 C45.5011866,12.0639823 53.8543671,20.8431392 54.4463105,31.4012819 Z"></path>
            <path stroke="#FFFFFF" stroke-width="1.66666667" d="M52.7820396,31.4907052 C52.2340127,21.7502142 44.5123901,13.6360374 34.8158157,12.6184757 C31.5155115,12.2536864 29.7609421,12.4718914 29.1289794,13.4345605 C28.4414039,14.3553975 28.7428464,15.7465943 29.9619089,16.4072755 C33.5151494,17.9913204 35.7172682,21.6778914 35.4344949,25.5602148 C35.1000637,30.2340268 31.1751427,34.0049446 26.4832046,34.1593849 C23.1040173,34.2618165 20.0217984,32.5956926 18.2647463,29.724457 C17.8898338,29.1130159 17.3288145,28.7409595 16.7708011,28.679622 C13.5713707,28.5653832 12.0171825,30.8123912 12.5577637,34.0347064 C13.2459829,44.3363539 21.8872775,52.5891529 32.1974693,52.8133992 C44.5153521,52.7395355 53.3369632,43.4079778 52.7820397,31.4907052 Z"></path>
        </g>
        <path d="M42.1921343,26.654002 C43.9071013,26.654002 45.2987318,25.2623716 45.2987318,23.5474045 C45.2987318,21.8324375 43.9071013,20.4408071 42.1921343,20.4408071 C40.4771673,20.4408071 39.0855369,21.8324375 39.0855369,23.5474045 C39.0855369,25.2623716 40.4771673,26.654002 42.1921343,26.654002 Z" id="Shape" stroke="#2B2B2B" stroke-width="1.66666667" fill="#FFF9ED" fill-rule="nonzero"></path>
        <path d="M43.6607414,40.3397751 C45.4240227,40.3397751 46.8548583,38.9089395 46.8548583,37.1456583 C46.8548583,35.382377 45.4240227,33.9515414 43.6607414,33.9515414 C41.8974602,33.9515414 40.4666246,35.382377 40.4666246,37.1456583 C40.4666246,38.9089395 41.8974602,40.3397751 43.6607414,40.3397751 Z" id="Shape" stroke="#2B2B2B" stroke-width="1.66666667" fill="#ED6969" fill-rule="nonzero"></path>
        <path d="M36.5462889,45.2675984 C36.5462889,43.493703 35.1068404,42.0542545 33.332945,42.0542545 C31.5590496,42.0542545 30.1196011,43.493703 30.1196011,45.2675984 C30.1196011,47.0414937 31.5590496,48.4809422 33.332945,48.4809422 C35.1068404,48.4809422 36.5462889,47.0414937 36.5462889,45.2675984 Z" id="Shape" stroke="#2B2B2B" stroke-width="1.66666667" fill="#FFF9ED" fill-rule="nonzero"></path>
        <path d="M24.1700932,40.1777913 C24.1700932,38.4461004 22.764892,37.0408992 21.033201,37.0408992 C19.3015101,37.0408992 17.8963089,38.4461004 17.8963089,40.1777913 C17.8963089,41.9094823 19.3015101,43.3146835 21.033201,43.3146835 C22.764892,43.3146835 24.1700932,41.9235343 24.1700932,40.1777913 Z" id="Shape" stroke="#2B2B2B" stroke-width="1.66666667" fill="#ED6969" fill-rule="nonzero"></path>
        <path d="M60,49.712518 C60,51.767558 58.5184896,53.3333333 56.6666667,53.3333333 C54.8148437,53.3333333 53.3333333,51.6697601 53.3333333,49.712518 C53.3333333,47.657478 56.6666667,42.6666667 56.6666667,42.6666667 C56.6666667,42.6666667 60,47.657478 60,49.712518 Z" id="Shape" fill="#FFC55D" fill-rule="nonzero"></path>
    </g>
</svg>