<?xml version="1.0" encoding="UTF-8"?>
<svg width="64px" height="64px" viewBox="0 0 64 64" version="1.1" xmlns="http://www.w3.org/2000/svg" xmlns:xlink="http://www.w3.org/1999/xlink">
    <!-- Generator: Sketch 49.1 (51147) - http://www.bohemiancoding.com/sketch -->
    <title>team</title>
    <desc>Created with Sketch.</desc>
    <defs>
        <path d="M6.8025641,16.4290896 L14.2017949,16.4290896 L14.2017949,23.4029166 C14.2017949,23.4029166 11.7494714,25.0921947 10.5021795,25.0921947 C9.25488754,25.0921947 6.8025641,23.4029166 6.8025641,23.4029166 L6.8025641,16.4290896 Z" id="path-1"></path>
        <path d="M9.53017094,13.6911126 C7.33193162,13.6911126 5.42147009,12.4615498 4.45223932,10.654212 C3.79340171,9.4256042 4.08832906,7.68037973 5.2302265,6.87806019 C5.44932051,6.7240664 6.44664918,4.2511489 8.37354926,4.17922238 C11.9035273,4.04745685 15.3082168,6.51283892 15.2681368,8.39718836 C15.2050126,11.3649511 12.5577607,13.6911126 9.53017094,13.6911126 Z" id="path-2"></path>
        <path d="M10.2038462,24.2864802 L21.3026923,24.2864802 L21.3026923,34.5956158 C21.3026923,34.5956158 17.6242072,33.6290268 15.7532692,33.6290268 C13.8823313,33.6290268 10.2038462,34.5956158 10.2038462,34.5956158 L10.2038462,24.2864802 Z" id="path-3"></path>
        <path d="M15.7538462,27.1631378 C10.6455385,27.1631378 6.5045,22.8709346 6.5045,17.5761529 L6.5045,16.6174663 L6.87444231,15.5773685 C7.64636538,15.0439675 7.27091346,14.1459165 7.27091346,13.18424 L7.27091346,9.93001586 C7.3705172,9.85890147 7.0985362,7.14502264 8.65288462,6.73009343 C9.71148297,6.4475034 12.4704733,8.06268243 13.3299595,8.24052373 C16.9497984,8.98952571 21.4271324,9.12246605 24.3612981,11.6569881 C24.4654519,12.4758915 24.3612981,12.5007453 24.3612981,13.18424 C24.3612981,14.1459165 24.0862115,15.0443263 24.85825,15.5778468 L25.0033077,16.6174663 L25.0033077,17.5761529 C25.0031923,22.870815 20.8621538,27.1631378 15.7538462,27.1631378 Z" id="path-4"></path>
    </defs>
    <g id="team" stroke="none" stroke-width="1" fill="none" fill-rule="evenodd">
        <rect id="Rectangle" x="0" y="0" width="64" height="64"></rect>
        <g id="Group" transform="translate(0.000000, 10.000000)">
            <path d="M46.5153846,27.1413905 C44.7920809,25.6398137 43.7395833,23.2834812 43.7395833,20.5564171 L43.7395833,19.5912905 L43.9312678,19.0444417 L43.796292,18.6185074 C43.5552664,17.8581066 43.4324615,17.0622602 43.4324615,16.2612451 L43.4324615,14.7195461 C43.4324615,13.3238803 43.498347,12.7072649 43.9096435,12.068907 C44.2108463,11.6014214 44.5688757,11.3931198 45.3687774,11.0489588 C45.4593653,11.0100847 45.4593653,11.0100847 45.54502,10.97324 C45.7118209,10.9012098 45.8329425,10.8436767 45.9098024,10.8051885 C45.9389285,10.6963719 45.9744271,10.5689946 45.9994041,10.4937572 C46.0996208,10.1918776 46.2351788,9.911656 46.4272598,9.6431521 C46.9219465,8.95164557 47.7096565,8.46270669 48.8248434,8.21171572 C49.4908806,8.06181318 50.476583,8.00993539 51.73516,8.02595883 C52.4244042,8.03473387 53.1587061,8.06400301 53.8995129,8.10729942 C54.2130767,8.12562564 54.5067809,8.14526512 54.7725826,8.16492805 C54.9329608,8.17679217 55.0491274,8.18609178 55.1129881,8.1915398 L55.3653612,8.24761237 C57.4067764,8.99724516 58.6274394,10.3867156 59.1010647,12.1830933 C59.4171219,13.3818428 59.3758078,14.6266148 59.1221311,15.8087936 C59.0684191,16.0591013 59.0136223,16.2672875 58.9657322,16.4258759 C58.9500708,17.1712347 58.8281285,17.9103375 58.6036528,18.6184388 L58.7331743,19.7233089 L58.7434295,19.9078939 L58.7434295,20.5564571 C58.7433708,23.2900159 57.6520637,25.6632121 55.8838462,27.167376 L55.8838462,28.0531735 L60.6951467,29.8932648 C62.3774987,30.536686 63.4877436,32.1971564 63.4877436,34.0469304 L63.4877436,38.7152298 C63.4877436,39.7277519 62.6795602,40.5485632 61.6826154,40.5485632 C60.9953245,40.5485632 60.3977459,40.1740859 60.0928325,39.5999985 C59.1863937,39.5999985 55.0634239,39.5999985 47.7239231,39.5999985 L47.7239231,45.0862818 C47.7239231,46.0988038 46.9157397,46.9196151 45.9187949,46.9196151 C45.2758605,46.9196151 44.7114323,46.5340192 44.3916501,46.0200005 C42.8307692,46.0200005 17.6704152,46.0200005 16.0274321,46.0153901 C15.7136109,46.5565062 15.1340317,46.9196151 14.4709487,46.9196151 C13.4740039,46.9196151 12.6658205,46.0988038 12.6658205,45.0862818 L12.6658205,38.0723531 C7.82113889,38.0723531 4.83573714,38.0723531 3.70961527,38.0723531 C3.38554367,38.562164 2.83494068,38.8844599 2.21022305,38.8844481 C1.21327827,38.8844294 0.405109779,38.063603 0.405128205,37.0510809 L0.405247863,30.4759115 C0.405247863,28.7998812 1.29145619,27.2618034 2.71254053,26.4219669 C2.72360685,25.5388251 2.69480792,24.3819318 2.61760272,22.9860651 C2.59138866,22.512116 2.56134135,22.0199806 2.5164791,21.3268722 C2.29164813,17.8533005 2.27191211,17.3840964 2.32819347,16.5935606 C2.66783805,11.8258808 6.29206899,8.1940361 10.8429915,8.1940361 C15.3939139,8.1940361 19.0181449,11.8258808 19.3577894,16.5935606 C19.3956819,17.125803 19.4092924,17.7555195 19.4238421,19.5076272 C19.4392503,21.36312 19.4467932,21.9400909 19.4681651,22.8389841 C19.5098575,24.5925426 19.5957085,25.9932329 19.7074562,26.9585043 C20.6931458,27.8378881 21.2808547,29.1112638 21.2808547,30.4761503 L21.2808547,30.9771015 L21.4726192,30.9048237 L21.9585854,29.8433654 C22.3058906,29.0846909 22.9394605,28.5659125 23.6602564,28.3488092 L23.6602564,26.3911309 C21.408941,24.4565748 19.9729917,21.5427457 19.9609861,18.2840134 L19.9607949,16.7919929 C19.9607949,16.5883034 19.929107,16.3859239 19.867058,16.192903 L19.5592341,15.2356014 C19.212557,14.1577366 19.0358718,13.0293085 19.0358718,11.8934347 L19.0358718,9.61440148 C19.0358718,7.39033809 19.4861941,5.70172821 20.4876632,4.33930062 C20.1931385,4.09093323 20.0960136,3.98821138 19.9612888,3.7609272 C19.5774969,3.11346037 19.7987062,2.3718086 20.4543049,1.98863462 C20.8360786,1.76550159 21.5552219,1.56015866 22.8350973,1.25947743 C23.0426751,1.21071116 23.2641163,1.15980758 23.5102733,1.1041241 C23.7949874,1.03971855 24.9202501,0.789541498 25.1703285,0.732692556 C25.6964187,0.613099381 26.0212191,0.532405526 26.1599531,0.48652263 C26.4048038,0.435100922 26.5618018,0.411380713 26.7697997,0.380983857 C27.1159663,0.330395012 27.4779817,0.279808411 27.8386047,0.232524492 C28.0331045,0.207022212 28.222284,0.183141482 28.404659,0.161172875 C29.198925,0.0654967819 29.8139219,0.0112092391 30.2162953,0.0112092391 C30.6525432,0.0112092391 31.2333223,0.0551565163 31.9339169,0.133458299 C32.193727,0.162495919 32.4653165,0.195799875 32.7450757,0.232559059 C33.1063654,0.280031013 33.4631379,0.330821835 33.8001515,0.381626501 C34.0028844,0.412188392 34.1546755,0.436076124 34.2400736,0.449973342 C37.5725335,1.57721953 39.6437627,3.36707827 40.7355745,5.66339466 C41.6536759,7.59436069 41.7871235,9.61816964 41.4709431,11.4588045 C41.4306129,11.6935853 41.3892126,11.8859733 41.3528968,12.0306611 C41.3392457,13.1201917 41.1630935,14.2013217 40.8304164,15.235532 L40.5225958,16.1928236 C40.4605212,16.3859239 40.4288333,16.5883034 40.4288333,16.7919929 L40.4288333,17.2824708 L40.4289487,18.2428417 C40.4288773,21.5187121 38.9898006,24.449386 36.7283333,26.3920908 L36.7283333,28.348461 C37.4496031,28.5653454 38.0836514,29.0842507 38.4311265,29.8432961 L38.9171244,30.9048237 L39.8633032,31.2614472 C40.3360613,30.6556767 40.9651589,30.1761634 41.7048554,29.893264 L46.5153846,28.0534677 L46.5153846,27.1413905 Z" id="Combined-Shape" fill="#FFFFFF" fill-rule="nonzero"></path>
            <g id="team-3-copy" transform="translate(40.694156, 8.666667)" fill-rule="nonzero">
                <path d="M2.1105641,24.3984177 C2.34810256,24.7298797 2.48648718,25.1367439 2.48648718,25.5674747 L2.48648718,30.0485632 L0.0199487179,30.0485632 L0.0199487179,26.7807859 C0.0199487179,26.3867854 0.19025641,26.0140625 0.482794872,25.7679538 L2.1105641,24.3984177 Z" id="Shape" fill="#C7CFE2"></path>
                <path d="M17.2854103,7.59457841 C17.2854103,7.59457841 19.1483235,2.28955982 14.3331361,0.521363812 C14.3331361,0.521363812 9.98760282,0.150641605 8.34043393,0.521363812 C6.05534702,1.03565986 6.24505064,2.5272948 6.04595661,2.7525047 C5.65466642,3.19512181 4.38010019,3.41589162 4.03610256,3.94979745 C3.72200987,4.43728896 3.71964103,5.31810759 3.71964103,6.05287943 L3.71964103,7.59457841 C3.71964103,8.29164381 3.82648718,8.98409771 4.03610256,9.64540373 L4.24133333,10.293037 C4.30417949,10.4914127 4.33625641,10.6991731 4.33625641,10.9083089 L4.33625641,11.2411463 L16.6687949,11.2411463 L16.6687949,10.9083089 C16.6687949,10.6991731 16.7008718,10.4914127 16.7637179,10.293037 L16.9689487,9.64540373 C17.1785641,8.98417862 17.2854103,8.29164381 17.2854103,7.59457841 Z" id="Shape" fill="#2B2B2B"></path>
                <g id="Rectangle-path">
                    <use fill="#FFF9ED" fill-rule="evenodd" xlink:href="#path-1"></use>
                    <path stroke="#2B2B2B" stroke-width="1.65" d="M7.6275641,17.2540896 L7.6275641,22.9577566 C7.63413612,22.96194 7.64077621,22.9661621 7.64748358,22.9704214 C7.94537354,23.1595868 8.26193339,23.3487804 8.58176807,23.524429 C8.84906101,23.6712224 9.10656836,23.8017603 9.34866932,23.9116561 C9.8584706,24.143068 10.2710043,24.2671947 10.5021795,24.2671947 C10.7333547,24.2671947 11.1458884,24.143068 11.6556897,23.9116561 C11.8977906,23.8017603 12.155298,23.6712224 12.4225909,23.524429 C12.7424256,23.3487804 13.0589854,23.1595868 13.3568754,22.9704214 C13.3635828,22.9661621 13.3702229,22.96194 13.3767949,22.9577558 L13.3767949,17.2540896 L7.6275641,17.2540896 Z"></path>
                </g>
                <path d="M10.5025641,18.3750638 C7.09702564,18.3750638 4.84727564,15.4715146 4.84727564,11.8897505 L4.84727564,11.2412272 L5.09390385,10.5376316 C5.60851923,10.1768015 4.84727564,9.56929643 4.84727564,8.91875059 L4.84727564,6.71736367 C4.91367814,6.66925688 5.44443833,6.99805108 6.48067061,6.71736367 C7.18640284,6.52619983 8.37297893,5.67449499 8.84397594,5.70531357 C11.2949048,5.86568433 14.1880498,5.00283408 16.1441603,6.71736367 C16.2135962,7.27132779 16.2408654,8.45638652 16.2408654,8.91875059 C16.2408654,9.56929643 15.4731755,10.2517542 16.1441603,10.5379552 L16.2408654,11.2412272 L16.2408654,11.8897505 C16.2407885,15.4714337 13.9081026,18.3750638 10.5025641,18.3750638 Z" id="Shape" stroke="#2B2B2B" stroke-width="1.65" fill="#FFF9ED"></path>
                <path d="M20.9851795,30.0485632 L20.9851795,25.3802637 C20.9851795,24.2894405 20.3363333,23.3151185 19.3615641,22.9423147 L14.2023333,20.9691568 L10.5025641,22.2662033 L6.80279487,20.9691568 L1.6435641,22.9423147 C0.668794872,23.3151185 0.0199487179,24.2894405 0.0199487179,25.3802637 L0.0199487179,30.0485632" id="Shape" stroke="#2B2B2B" stroke-width="1.65" fill="#FFC55D" stroke-linecap="round"></path>
            </g>
            <g id="team-3-copy" transform="translate(1.312821, 10.000000)" fill-rule="nonzero">
                <path d="M16.244547,6.72586023 C15.9816581,3.03562007 13.2383761,0.0273694376 9.53017094,0.0273694376 C5.82196581,0.0273694376 3.07868376,3.03562007 2.81579487,6.72586023 C2.65916239,8.92594194 3.77497436,17.2674181 2.81579487,19.1812385 C2.81579487,19.1812385 2.81579487,16.2950816 6.35324786,17.2546181 L12.7264786,17.2519918 C16.244547,16.2950816 17.0675991,19.1812385 17.0675991,19.1812385 C16.1084196,17.2674181 16.4011795,8.92594194 16.244547,6.72586023 Z" id="Shape" stroke="#2B2B2B" stroke-width="1.65" fill="#AB6F7B"></path>
                <path d="M18.162906,26.0879748 L18.162906,20.4760309 C18.162906,19.3887632 17.5471453,18.3947273 16.5721709,17.9083935 L13.4681197,16.3600994 C12.8181368,16.0358768 12.4075897,15.3731067 12.4075897,14.6481422 L12.4077094,11.7771728 L6.65263248,11.7771728 L6.65263248,14.6481422 C6.65263248,15.3729873 6.24208547,16.0356381 5.59222222,16.3598607 L2.48805128,17.9082741 C1.51319658,18.394608 0.897435897,19.3885244 0.897435897,20.4759115 L0.897435897,26.0879748 L18.162906,26.0879748 Z" id="Shape" stroke="#2B2B2B" stroke-width="0.958064516" fill="#FFF9ED"></path>
                <path d="M18.162906,27.0511148 L18.162906,20.4761503 C18.162906,19.3887632 17.5470256,18.3947273 16.5721709,17.9083935 L13.4681197,16.3600994 C13.2894701,16.2710456 13.1339145,16.1522675 12.9951111,16.0178512 L11.8942564,17.2402515 C10.5940513,18.683973 8.46641026,18.6838537 7.16620513,17.2402515 L6.06523077,16.0177318 C5.92630769,16.1521481 5.77075214,16.2709263 5.59234188,16.35998 L2.48805128,17.9083935 C1.51331624,18.394608 0.897555556,19.3886438 0.897555556,20.4759115 L0.897435897,27.0511148" id="Shape" stroke="#2B2B2B" stroke-width="1.65" fill="#ED6969" stroke-linecap="round"></path>
                <g id="Shape">
                    <use fill="#FFF9ED" fill-rule="evenodd" xlink:href="#path-2"></use>
                    <path stroke="#2B2B2B" stroke-width="1.65" d="M9.53017094,12.8661126 C12.1657508,12.8661126 14.3909066,10.8439972 14.4433233,8.37964461 C14.474062,6.9344753 11.3302787,4.89442939 8.40432308,5.00364823 C7.83559341,5.02487753 7.30016276,5.38624662 6.78235356,6.04258549 C6.56803629,6.31423914 5.90201645,7.41428045 5.704519,7.55309472 C4.94219888,8.08871579 4.69494801,9.36110521 5.17929042,10.2643124 C6.03135014,11.8531598 7.6905493,12.8661126 9.53017094,12.8661126 Z"></path>
                </g>
            </g>
            <g id="team-3" transform="translate(14.441026, 0.666667)">
                <path d="M3.16584615,36.0672261 C3.52215385,36.5572135 3.72973077,37.1586649 3.72973077,37.7953973 L3.72973077,44.4196151 L0.0299230769,44.4196151 L0.0299230769,39.5889879 C0.0299230769,39.0065523 0.285384615,38.4555707 0.724192308,38.0917577 L3.16584615,36.0672261 Z" id="Shape" fill="#C7CFE2" fill-rule="nonzero"></path>
                <path d="M31.4777692,44.4196151 L31.4777692,37.5186507 C31.4777692,35.9061294 30.5045,34.4658273 29.0423462,33.9147261 L21.3035,30.997884 L15.7538462,32.9152571 L10.2041923,30.997884 L2.46534615,33.9147261 C1.00319231,34.4658273 0.0299230769,35.9061294 0.0299230769,37.5186507 L0.0299230769,44.4196151" id="Shape" stroke="#2B2B2B" stroke-width="1.65" fill="#94E8F4" fill-rule="nonzero" stroke-linecap="round"></path>
                <path d="M6.63319838,38.617284 L6.63319838,44.4938272" id="Path-2" stroke="#2B2B2B" stroke-width="1.65" stroke-linecap="round"></path>
                <path d="M24.8744939,38.617284 L24.8744939,44.4938272" id="Path-2-Copy" stroke="#2B2B2B" stroke-width="1.65" stroke-linecap="round"></path>
                <path d="M25.9281154,11.2267681 C25.9281154,11.2267681 28.1588942,3.68852322 19.6432692,0.770711722 C19.6432692,0.770711722 17.0244683,0.344542572 15.7752696,0.344542572 C14.7729042,0.344542572 12.0237981,0.770711722 12.0237981,0.770711722 C11.2170508,1.0375236 7.19976009,1.78227517 6.50438462,2.18869725 C5.7157057,2.64965185 7.71287039,3.2515283 7.19895866,3.82442668 C6.07611245,5.07615286 5.57946154,6.6719497 5.57946154,8.94773481 L5.57946154,11.2267681 C5.57946154,12.2572126 5.73973077,13.2808401 6.05415385,14.2584229 L6.362,15.2157939 C6.45626923,15.5090448 6.50438462,15.8161689 6.50438462,16.1253262 L6.50438462,16.6173467 L25.0031923,16.6173467 L25.0031923,16.1253262 C25.0031923,15.8161689 25.0513077,15.5090448 25.1455769,15.2157939 L25.4534231,14.2584229 C25.7678462,13.2809597 25.9281154,12.2572126 25.9281154,11.2267681 Z" id="Shape" fill="#2B2B2B" fill-rule="nonzero"></path>
                <g id="Rectangle-path" fill-rule="nonzero">
                    <use fill="#FFF9ED" fill-rule="evenodd" xlink:href="#path-3"></use>
                    <path stroke="#2B2B2B" stroke-width="1.65" d="M11.0288462,25.1114802 L11.0288462,33.5440206 C11.3790308,33.4622767 11.7412218,33.3816446 12.1077967,33.3048499 C12.5436766,33.2135363 12.9667941,33.1317167 13.3707437,33.0617709 C14.3258243,32.8963943 15.1305795,32.8040268 15.7532692,32.8040268 C16.3759589,32.8040268 17.1807141,32.8963943 18.1357947,33.0617709 C18.5397444,33.1317167 18.9628618,33.2135363 19.3987417,33.3048499 C19.7653167,33.3816446 20.1275076,33.4622767 20.4776923,33.5440198 L20.4776923,25.1114802 L11.0288462,25.1114802 Z"></path>
                </g>
                <path d="M15.7538462,32.9152571 L12.8039231,35.9728644 C12.4074615,36.3837984 11.7520769,36.3375145 11.4130769,35.8745559 L8.35434615,31.6971655 L9.15442308,29.9496196 C9.3905,29.4339189 10.0063077,29.2449563 10.4752308,29.5444262 L15.7538462,32.9152571 Z" id="Shape" stroke="#2B2B2B" stroke-width="1.65" fill="#94E8F4" fill-rule="nonzero"></path>
                <path d="M15.7538462,32.9152571 L18.7037692,35.9728644 C19.1002308,36.3837984 19.7556154,36.3375145 20.0946154,35.8745559 L23.1533462,31.6971655 L22.3532692,29.9496196 C22.1171923,29.4339189 21.5013846,29.2449563 21.0324615,29.5444262 L15.7538462,32.9152571 Z" id="Shape" stroke="#2B2B2B" stroke-width="1.65" fill="#94E8F4" fill-rule="nonzero"></path>
                <g id="Shape" fill-rule="nonzero">
                    <use fill="#FFF9ED" fill-rule="evenodd" xlink:href="#path-4"></use>
                    <path stroke="#2B2B2B" stroke-width="1.65" d="M24.1783077,16.6747448 L24.0866271,16.0176754 C23.5203216,15.4975465 23.4419221,14.8850755 23.5140677,13.7224436 C23.5304436,13.4585439 23.5362981,13.3296203 23.5362981,13.18424 C23.5362981,12.9647996 23.544502,12.8059092 23.5624461,12.5961654 C23.5688292,12.5227734 23.5688292,12.5227734 23.5739379,12.4607842 C23.5839975,12.3326434 23.5860954,12.2232174 23.5758693,12.0773674 C22.1165221,10.9179661 20.2286869,10.2776897 17.284102,9.75726238 C16.807577,9.67304112 16.6391959,9.6454559 15.5025831,9.46240939 C14.4113868,9.28667701 13.8073972,9.1817889 13.162795,9.04841048 C12.9230244,8.99879815 12.6402635,8.89536185 12.2229452,8.71792641 C12.0107396,8.62770079 11.2028218,8.26957657 11.11865,8.23286691 C10.9267303,8.14916538 10.757844,8.07722257 10.5977561,8.01134642 C9.69266086,7.63889968 9.05875626,7.47563637 8.86566518,7.52718153 C8.58919634,7.60098415 8.3816775,7.90762671 8.25331483,8.4837043 C8.17230362,8.84727377 8.1538499,9.06802414 8.12436803,9.7280344 C8.11999511,9.8259309 8.11618574,9.88786422 8.10969777,9.94751724 C8.10470629,9.99100337 8.10314276,10.0046249 8.09591346,10.0407329 L8.09591346,13.18424 C8.09591346,13.3470693 8.10694157,13.4966113 8.1373413,13.7961193 C8.25573699,14.9625927 8.19018197,15.5578886 7.57002735,16.0835704 L7.3295,16.7598163 L7.3295,17.5761529 C7.3295,22.4217869 11.1079231,26.3381378 15.7538462,26.3381378 C20.3997144,26.3381378 24.1782021,22.4217199 24.1783077,17.5761529 L24.1783077,16.6747448 Z"></path>
                </g>
            </g>
        </g>
    </g>
</svg>