<?xml version="1.0" encoding="UTF-8"?>
<svg width="64px" height="64px" viewBox="0 0 64 64" version="1.1" xmlns="http://www.w3.org/2000/svg" xmlns:xlink="http://www.w3.org/1999/xlink">
    <!-- Generator: Sketch 49.1 (51147) - http://www.bohemiancoding.com/sketch -->
    <title>briefcase</title>
    <desc>Created with Sketch.</desc>
    <defs>
        <rect id="path-1" x="1" y="10.6386589" width="46.6666667" height="31.6946745"></rect>
        <path d="M1,5.96 L1,15.8266667 C1,19.508565 3.98476833,22.4933333 7.66666667,22.4933333 L41,22.4933333 C44.6818983,22.4933333 47.6666667,19.508565 47.6666667,15.8266667 L47.6666667,5.96 L1,5.96 Z" id="path-2"></path>
        <path d="M24.3333333,36.4752802 C27.2470111,36.4752802 29.6090274,34.1159396 29.6090274,31.2055624 L29.6090274,25.9358446 L19.0576393,25.9358446 L19.0576393,31.2055624 C19.0576393,34.1159396 21.4196555,36.4752802 24.3333333,36.4752802 Z" id="path-3"></path>
        <path d="M24.3333333,14.0781762 C25.6246875,14.0781762 26.6714974,15.1238003 26.6714974,16.4136916 L26.6714974,31.2055624 L24.3333333,33.5410778 L21.9951693,31.2055624 L21.9951693,16.4136916 C21.9951693,15.1238003 23.0419792,14.0781762 24.3333333,14.0781762 Z" id="path-4"></path>
    </defs>
    <g id="briefcase" stroke="none" stroke-width="1" fill="none" fill-rule="evenodd">
        <rect id="Rectangle" x="0" y="0" width="64" height="64"></rect>
        <g id="suitcase" transform="translate(8.333333, 8.333333)">
            <path d="M33.6666667,4.96 L48.6666667,4.96 L48.6666667,43.3333333 L-1.42108547e-14,43.3333333 L-1.42108547e-14,4.96 L15,4.96 L15,4.33333333 C15,1.94009942 16.9400994,3.94129174e-14 19.3333333,3.95239397e-14 L29.3333333,3.90798505e-14 C31.7265672,3.86357613e-14 33.6666667,1.94009942 33.6666667,4.33333333 L33.6666667,4.96 Z" id="Combined-Shape" fill="#FFFFFF" fill-rule="nonzero"></path>
            <path d="M46.9359505,15.6351865 L46.9359505,8.62854919 L1.73071615,8.62854919 L1.73071615,15.6351865 C1.73071615,19.0748664 4.52233073,21.8633186 7.96591146,21.8633186 L40.7007552,21.8633186 C44.1443359,21.8633186 46.9359505,19.0748664 46.9359505,15.6351865 Z" id="Shape" fill="#55606E" fill-rule="nonzero"></path>
            <path d="M19.3333333,1.83333333 C17.9526215,1.83333333 16.8333333,2.95262146 16.8333333,4.33333333 L16.8333333,7.58666667 C16.8333333,8.96737854 17.9526215,10.0866667 19.3333333,10.0866667 L29.3333333,10.0866667 C30.7140452,10.0866667 31.8333333,8.96737854 31.8333333,7.58666667 L31.8333333,4.33333333 C31.8333333,2.95262146 30.7140452,1.83333333 29.3333333,1.83333333 L19.3333333,1.83333333 Z" id="Rectangle" stroke="#2B2B2B" stroke-width="1.66666667"></path>
            <path d="M19.3333333,1.83333333 C17.9526215,1.83333333 16.8333333,2.95262146 16.8333333,4.33333333 L16.8333333,7.58666667 C16.8333333,8.96737854 17.9526215,10.0866667 19.3333333,10.0866667 L29.3333333,10.0866667 C30.7140452,10.0866667 31.8333333,8.96737854 31.8333333,7.58666667 L31.8333333,4.33333333 C31.8333333,2.95262146 30.7140452,1.83333333 29.3333333,1.83333333 L19.3333333,1.83333333 Z" id="Rectangle" stroke="#2B2B2B" stroke-width="1.66666667"></path>
            <g id="Rectangle-52-Copy" transform="translate(24.333333, 26.485996) scale(1, -1) translate(-24.333333, -26.485996) ">
                <use fill="#8497DD" fill-rule="evenodd" xlink:href="#path-1"></use>
                <rect stroke="#2B2B2B" stroke-width="1.66666667" x="1.83333333" y="11.4719922" width="45" height="30.0280078"></rect>
            </g>
            <g id="Rectangle-52">
                <use fill="#8497DD" fill-rule="evenodd" xlink:href="#path-2"></use>
                <path stroke="#2B2B2B" stroke-width="1.66666667" d="M1.83333333,6.79333333 L1.83333333,15.8266667 C1.83333333,19.0483277 4.44500563,21.66 7.66666667,21.66 L41,21.66 C44.221661,21.66 46.8333333,19.0483277 46.8333333,15.8266667 L46.8333333,6.79333333 L1.83333333,6.79333333 Z"></path>
            </g>
            <g id="Shape" fill-rule="nonzero">
                <use fill="#FFC55D" fill-rule="evenodd" xlink:href="#path-3"></use>
                <path stroke="#2B2B2B" stroke-width="1.66666667" d="M24.3333333,37.3086135 C20.9596296,37.3086135 18.224306,34.5763885 18.224306,31.2055624 L18.224306,25.1025113 L30.4423607,25.1025113 L30.4423607,31.2055624 C30.4423607,34.5763885 27.7070371,37.3086135 24.3333333,37.3086135 Z"></path>
            </g>
            <g id="Shape" fill-rule="nonzero">
                <use fill="#FFC55D" fill-rule="evenodd" xlink:href="#path-4"></use>
                <path stroke="#2B2B2B" stroke-width="1.5625" d="M24.3333333,13.2969262 C26.0559619,13.2969262 27.4527474,14.6921295 27.4527474,16.4136916 L27.4527474,31.5294261 L24.3333333,34.6453066 L21.2139193,31.5294261 L21.2139193,16.4136916 C21.2139193,14.6921295 22.6107048,13.2969262 24.3333333,13.2969262 Z"></path>
            </g>
            <path d="M24.3333333,17.9220852 C23.9298307,17.9220852 23.6026172,17.5953333 23.6026172,17.1921968 L23.6026172,16.4136916 C23.6026172,16.0105551 23.9298307,15.6838032 24.3333333,15.6838032 C24.7369271,15.6838032 25.0640495,16.0106461 25.0640495,16.4136916 L25.0640495,17.1921968 C25.0640495,17.5953333 24.7368359,17.9220852 24.3333333,17.9220852 Z" id="Shape" fill="#000000" fill-rule="nonzero"></path>
            <path d="M23.6026172,27.3129457 L23.6026172,26.5344405 C23.6026172,26.131304 23.9298307,25.8045521 24.3333333,25.8045521 C24.7369271,25.8045521 25.0640495,26.131395 25.0640495,26.5344405 L25.0640495,27.3129457 C25.0640495,27.7160822 24.7368359,28.0428341 24.3333333,28.0428341 C23.9297396,28.0428341 23.6026172,27.7159912 23.6026172,27.3129457 Z" id="Shape" fill="#000000" fill-rule="nonzero"></path>
        </g>
    </g>
</svg>