<?xml version="1.0" encoding="UTF-8"?>
<svg width="64px" height="64px" viewBox="0 0 64 64" version="1.1" xmlns="http://www.w3.org/2000/svg" xmlns:xlink="http://www.w3.org/1999/xlink">
    <!-- Generator: Sketch 49.1 (51147) - http://www.bohemiancoding.com/sketch -->
    <title>todolist</title>
    <desc>Created with Sketch.</desc>
    <defs>
        <path d="M16.6666667,6.66666667 C14.8257175,6.66666667 13.3333333,8.15905083 13.3333333,10 L13.3333333,54 C13.3333333,55.8409492 14.8257175,57.3333333 16.6666667,57.3333333 L47.3333333,57.3333333 C49.1742825,57.3333333 50.6666667,55.8409492 50.6666667,54 L50.6666667,18.4888889 L42.1212121,18.4888889 C40.280263,18.4888889 38.7878788,16.9965047 38.7878788,15.1555556 L38.7878788,6.66666667 L16.6666667,6.66666667 Z" id="path-1"></path>
        <rect id="path-2" x="20" y="20" width="6.66666667" height="6.66666667"></rect>
        <rect id="path-3" x="20" y="30.6666667" width="6.66666667" height="6.66666667"></rect>
        <rect id="path-4" x="20" y="40" width="6.66666667" height="6.66666667"></rect>
    </defs>
    <g id="todolist" stroke="none" stroke-width="1" fill="none" fill-rule="evenodd">
        <rect id="Rectangle" x="0" y="0" width="64" height="64"></rect>
        <path d="M51.3379393,17.7476681 C51.539847,17.9306337 51.6666667,18.1949511 51.6666667,18.4888889 L51.6666667,54 C51.6666667,56.3932339 49.7265672,58.3333333 47.3333333,58.3333333 L16.6666667,58.3333333 C14.2734328,58.3333333 12.3333333,56.3932339 12.3333333,54 L12.3333333,10 C12.3333333,7.60676608 14.2734328,5.66666667 16.6666667,5.66666667 L38.7878788,5.66666667 C39.0849754,5.66666667 39.3518116,5.7962267 39.53497,6.00192941 C39.5795634,6.03394969 39.6226614,6.07037598 39.6638354,6.11138022 L51.2543505,17.6541048 C51.2846689,17.6842982 51.3125091,17.715543 51.3379393,17.7476681 Z" id="Combined-Shape" fill="#FFFFFF" fill-rule="nonzero"></path>
        <polygon id="Rectangle-71" fill="#FFC55D" points="38.6666667 6.66666667 50.6666667 18.6666667 38.6666667 18.6666667"></polygon>
        <g id="Rectangle-70">
            <use fill="#FFF9ED" fill-rule="evenodd" xlink:href="#path-1"></use>
            <path stroke="#2B2B2B" stroke-width="1.66666667" d="M49.8333333,19.3222222 L42.1212121,19.3222222 C39.8200257,19.3222222 37.9545455,17.456742 37.9545455,15.1555556 L37.9545455,7.5 L16.6666667,7.5 C15.2859548,7.5 14.1666667,8.61928813 14.1666667,10 L14.1666667,54 C14.1666667,55.3807119 15.2859548,56.5 16.6666667,56.5 L47.3333333,56.5 C48.7140452,56.5 49.8333333,55.3807119 49.8333333,54 L49.8333333,19.3222222 Z"></path>
        </g>
        <g id="Rectangle">
            <use fill="#FFC55D" fill-rule="evenodd" xlink:href="#path-2"></use>
            <rect stroke="#2B2B2B" stroke-width="1.66666667" x="20.8333333" y="20.8333333" width="5" height="5"></rect>
        </g>
        <g id="Rectangle-Copy">
            <use fill="#FFC55D" fill-rule="evenodd" xlink:href="#path-3"></use>
            <rect stroke="#2B2B2B" stroke-width="1.66666667" x="20.8333333" y="31.5" width="5" height="5"></rect>
        </g>
        <g id="Rectangle-Copy-2">
            <use fill="#FFC55D" fill-rule="evenodd" xlink:href="#path-4"></use>
            <rect stroke="#2B2B2B" stroke-width="1.66666667" x="20.8333333" y="40.8333333" width="5" height="5"></rect>
        </g>
        <path d="M31.5,22.6666667 C31.0397627,22.6666667 30.6666667,23.0397627 30.6666667,23.5 C30.6666667,23.9602373 31.0397627,24.3333333 31.5,24.3333333 L37.8333333,24.3333333 C38.2935706,24.3333333 38.6666667,23.9602373 38.6666667,23.5 C38.6666667,23.0397627 38.2935706,22.6666667 37.8333333,22.6666667 L31.5,22.6666667 Z" id="Rectangle-2-Copy" fill="#2B2B2B"></path>
        <path d="M31.5,32 C31.0397627,32 30.6666667,32.373096 30.6666667,32.8333333 C30.6666667,33.2935706 31.0397627,33.6666667 31.5,33.6666667 L43.1666667,33.6666667 C43.626904,33.6666667 44,33.2935706 44,32.8333333 C44,32.373096 43.626904,32 43.1666667,32 L31.5,32 Z" id="Rectangle-2-Copy-2" fill="#2B2B2B"></path>
        <polygon id="Path-40" fill="#2B2B2B" fill-rule="nonzero" points="37.6078462 7.86008012 38.7820464 6.67727339 50.6596098 18.4684111 49.4854097 19.6512178"></polygon>
        <polyline id="Path-41" stroke="#FFFFFF" stroke-width="10" stroke-linecap="round" points="32 40.8478985 40.1291764 48 54.6666667 34.6666667"></polyline>
        <path d="M33.4421506,38.5414246 C32.379414,37.6527507 30.7998573,37.7967049 29.914112,38.8629555 C29.0283667,39.929206 29.1718466,41.5139854 30.2345833,42.4026594 L40.1172447,50.6666667 L56.471264,36.4104771 C57.5155977,35.5001065 57.6266283,33.9127064 56.7192578,32.8649197 C55.8118874,31.817133 54.2297186,31.7057353 53.185385,32.6161059 L40.0497322,44.0667684 L33.4421506,38.5414246 Z" id="Path-41" stroke="#2B2B2B" stroke-width="1.66666667" fill="#8BCB76" fill-rule="nonzero"></path>
    </g>
</svg>