<?xml version="1.0" encoding="UTF-8"?>
<svg width="64px" height="64px" viewBox="0 0 64 64" version="1.1" xmlns="http://www.w3.org/2000/svg" xmlns:xlink="http://www.w3.org/1999/xlink">
    <!-- Generator: Sketch 49.1 (51147) - http://www.bohemiancoding.com/sketch -->
    <title>map</title>
    <desc>Created with Sketch.</desc>
    <defs>
        <polygon id="path-1" points="1.58837891 3.22916667 18.8058268 7.93269231 18.8058268 42.8365385 -1.77635684e-14 37.7919922 -1.77635684e-14 3.64469401"></polygon>
        <polygon id="path-2" points="17.1875 3.23876953 35.9375 4.75961538 35.9375 39.6634615 17.1875 38.0769231"></polygon>
        <polygon id="path-3" points="34.3740234 5.04882812 53.125 0 53.125 34.9038462 35.8588867 39.6805013 34.3740234 39.2255859"></polygon>
    </defs>
    <g id="map" stroke="none" stroke-width="1" fill="none" fill-rule="evenodd">
        <rect id="Rectangle" x="0" y="0" width="64" height="64"></rect>
        <g id="Group" transform="translate(5.333333, 12.000000)">
            <path d="M17.7003227,39.1238893 L0.259084514,43.8023931 C-0.376101236,43.9727777 -1,43.4941796 -1,42.8365385 L-1,7.93269231 C-1,7.48189902 -0.698385799,7.08683661 -0.263527168,6.96804033 L16.9539207,2.26451469 C17.1165028,2.22009994 17.2875656,2.21752532 17.4512261,2.25687665 L35.4691498,3.7183425 L52.8650031,-0.965609446 C53.5004057,-1.13669593 54.125,-0.65803272 54.125,-8.8817842e-16 L54.125,34.9038462 C54.125,35.353443 53.8249544,35.7477663 53.3916338,35.8676441 L36.2979511,40.5965964 C36.2365698,40.6203636 36.1723483,40.6382173 36.1060212,40.6494825 C35.928358,40.6947959 35.7415128,40.69042 35.5659573,40.6366354 L17.7003227,39.1238893 Z" id="Combined-Shape" fill="#FFFFFF" fill-rule="nonzero"></path>
            <g id="Rectangle-37" transform="translate(9.402913, 23.032853) scale(-1, 1) translate(-9.402913, -23.032853) ">
                <use fill="#FFF9ED" fill-rule="evenodd" xlink:href="#path-1"></use>
                <path stroke="#2B2B2B" stroke-width="1.5625" d="M1.58400944,4.03785057 L0.78125,4.24785619 L0.78125,37.1926885 L18.0245768,41.8181039 L18.0245768,8.52914514 L1.58400944,4.03785057 Z"></path>
            </g>
            <g id="Rectangle-37-Copy">
                <use fill="#FFF9ED" fill-rule="evenodd" xlink:href="#path-2"></use>
                <path stroke="#2B2B2B" stroke-width="1.5625" d="M17.96875,4.08595386 L17.96875,37.3589871 L35.15625,38.813314 L35.15625,5.48006256 L17.96875,4.08595386 Z"></path>
            </g>
            <g id="Rectangle-37-Copy-2">
                <use fill="#FFF9ED" fill-rule="evenodd" xlink:href="#path-3"></use>
                <path stroke="#2B2B2B" stroke-width="1.5625" d="M35.1552734,5.64754576 L35.1552734,38.6478438 L35.8700309,38.866823 L52.34375,34.309383 L52.34375,1.0194314 L35.1552734,5.64754576 Z"></path>
            </g>
            <path d="M3.12438965,19.514578 L3.12438965,38.7204472 L17.0030212,34.8701477 L29.6681976,35.9474135 C29.6681976,35.9474135 28.8806152,29.6118727 24.072876,27.8183406 C19.2651367,26.0248084 19.8846436,25.5767353 15.7843018,19.3737417 C11.68396,13.1707482 3.12438965,19.514578 3.12438965,19.514578 Z" id="Path-15" fill="#8BCB76"></path>
            <path d="M11.6786957,7.98622249 L17.5453949,6.35637958 L36.1663818,7.98622249 L40.0053406,6.9283236 C40.0053406,6.9283236 37.355957,12.4722994 33.5852051,12.4722994 C29.8144531,12.4722994 26.2467957,11.257296 22.1942139,12.9600361 C18.1416321,14.6627761 11.6786957,7.98622249 11.6786957,7.98622249 Z" id="Path-16" fill="#FFC55D"></path>
            <path d="M40.4280853,35.1289673 L50.0107574,32.4739943 L50.0107574,23.7961402 C50.0107574,23.7961402 45.1321411,24.3028564 43.8912964,28.8331674 C42.6504517,33.3634784 40.4280853,35.1289673 40.4280853,35.1289673 Z" id="Path-17" fill="#FFC55D"></path>
            <polygon id="Star" fill="#ED6969" points="43.4375 17.1346154 41.2333053 18.311257 41.654269 15.81909 39.8710381 14.0541276 42.3354027 13.6905253 43.4375 11.4230769 44.5395973 13.6905253 47.0039619 14.0541276 45.220731 15.81909 45.6416947 18.311257"></polygon>
            <path d="M18.75,4.87337205 L18.75,36.641051 L34.375,37.9631664 L34.375,6.19548743 L18.75,4.87337205 Z M17.1875,3.21643066 L35.9375,4.75961538 L35.9375,39.6634615 L17.1875,38.0769231 L17.1875,3.21643066 Z" id="Rectangle-37-Copy" fill="#2B2B2B" fill-rule="nonzero"></path>
            <path d="M5.93664624,24.7616013 C5.57598561,24.9984396 5.091617,24.8980618 4.85477867,24.5374012 C4.61794033,24.1767406 4.71831813,23.692372 5.07897876,23.4555336 C5.26686963,23.3321496 5.5066072,23.1519675 5.81849777,22.9009073 C6.15460598,22.6303528 6.64640331,22.6834945 6.91695784,23.0196027 C7.18751236,23.3557109 7.1343706,23.8475083 6.79826239,24.1180628 C6.4504813,24.3980136 6.1747955,24.6052136 5.93664624,24.7616013 Z M8.72896161,22.5106607 C8.39665919,22.7858762 7.90416858,22.7395981 7.62895307,22.4072957 C7.35373755,22.0749933 7.40001564,21.5825027 7.73231807,21.3072872 C8.00696309,21.079824 8.26349407,20.8702348 8.51622805,20.6673585 C8.85270347,20.3972608 9.34442816,20.4510706 9.61452587,20.787546 C9.88462358,21.1240214 9.83081382,21.6157461 9.49433839,21.8858438 C9.24826166,22.0833761 8.99780169,22.2880052 8.72896161,22.5106607 Z M11.4492557,20.4084693 C11.096058,20.6562996 10.6088286,20.5708825 10.3609982,20.2176848 C10.1131679,19.8644871 10.1985851,19.3772576 10.5517828,19.1294273 C10.8378819,18.9286783 11.1214811,18.7368781 11.4035369,18.5537982 C11.7654524,18.3188821 12.2492802,18.4218355 12.4841963,18.7837511 C12.7191124,19.1456666 12.6161591,19.6294944 12.2542435,19.8644105 C11.9883555,20.036996 11.7203037,20.2182814 11.4492557,20.4084693 Z M14.3508224,18.6682406 C13.9626679,18.8566672 13.4952566,18.6947557 13.3068301,18.3066012 C13.1184035,17.9184467 13.280315,17.4510354 13.6684695,17.2626088 C13.9907705,17.1061503 14.3108735,16.9631726 14.6290444,16.8340656 C15.0288549,16.671831 15.4844825,16.8644244 15.646717,17.2642349 C15.8089516,17.6640453 15.6163583,18.1196729 15.2165478,18.2819075 C14.9311391,18.3977202 14.6425972,18.5266008 14.3508224,18.6682406 Z M17.4503752,17.6387936 C17.0242514,17.7065213 16.6239058,17.4159839 16.5561781,16.9898602 C16.4884504,16.5637364 16.7789878,16.1633907 17.2051115,16.0956631 C17.5714297,16.0374408 17.9341898,16.0011616 18.2933224,15.9875855 C18.7244869,15.9712865 19.0872278,16.3076015 19.1035268,16.738766 C19.1198258,17.1699305 18.7835108,17.5326713 18.3523463,17.5489703 C18.0566651,17.5601477 17.756017,17.5902152 17.4503752,17.6387936 Z M20.4612597,17.9906951 C20.0672675,17.8148013 19.8904638,17.3528174 20.0663577,16.9588252 C20.2422515,16.564833 20.7042354,16.3880293 21.0982276,16.5639232 C21.4145528,16.7051433 21.7352572,16.8712884 22.0617931,17.0619962 C22.4343764,17.2795972 22.5600144,17.758036 22.3424134,18.1306193 C22.1248124,18.5032026 21.6463736,18.6288406 21.2737903,18.4112396 C20.994593,18.2481791 20.7239707,18.1079798 20.4612597,17.9906951 Z M23.2203551,19.7947841 C22.8862895,19.5217114 22.8368449,19.0295287 23.1099175,18.695463 C23.3829902,18.3613974 23.8751729,18.3119529 24.2092385,18.5850255 C24.4634267,18.7928045 24.7235611,19.0136607 24.9922249,19.2492992 C25.316607,19.5338071 25.3489315,20.0274099 25.0644236,20.3517921 C24.7799158,20.6761742 24.2863129,20.7084987 23.9619308,20.4239908 C23.7064058,20.1998759 23.4599869,19.9906644 23.2203551,19.7947841 Z M25.7943534,22.1239173 C25.4837922,21.824384 25.4748523,21.3298047 25.7743856,21.0192435 C26.0739189,20.7086822 26.5684983,20.6997423 26.8790595,20.9992757 C27.0952601,21.2077991 27.3184684,21.424754 27.5996401,21.6992951 C27.9083555,22.0007305 27.9142572,22.4953554 27.6128218,22.8040708 C27.3113865,23.1127863 26.8167615,23.1186879 26.5080461,22.8172526 C26.2289707,22.5447583 26.0078912,22.3298725 25.7943534,22.1239173 Z M28.2835811,24.541037 C27.9711318,24.2434737 27.9590643,23.7489608 28.2566276,23.4365114 C28.5541909,23.1240621 29.0487038,23.1119946 29.3611531,23.4095579 C29.6160617,23.6523219 29.8533957,23.8748015 30.0807954,24.0837645 C30.3984996,24.3757106 30.4193807,24.8699298 30.1274346,25.187634 C29.8354885,25.5053382 29.3412693,25.5262193 29.0235651,25.2342733 C28.7888982,25.0186322 28.5448792,24.789886 28.2835811,24.541037 Z M31.0037025,26.9108671 C30.6595172,26.6506653 30.591435,26.1607128 30.8516368,25.8165275 C31.1118385,25.4723422 31.601791,25.40426 31.9459764,25.6644618 C32.213012,25.8663389 32.469731,26.0474094 32.7175804,26.2082141 C33.079544,26.4430562 33.1825964,26.9268629 32.9477543,27.2888265 C32.7129122,27.6507901 32.2291056,27.7538425 31.8671419,27.5190004 C31.5865761,27.3369692 31.2994826,27.1344748 31.0037025,26.9108671 Z M34.4961119,28.6525146 C34.071201,28.5775531 33.787511,28.1723264 33.8624725,27.7474155 C33.937434,27.3225047 34.3426607,27.0388146 34.7675715,27.1137762 C34.9227952,27.1411602 35.0727517,27.1555861 35.2101871,27.157127 C35.3636404,27.1572939 35.4847805,27.1531762 35.6069104,27.1441864 C36.0372186,27.1125121 36.4117296,27.4356687 36.4434039,27.865977 C36.4750783,28.2962853 36.1519217,28.6707962 35.7216134,28.7024706 C35.559532,28.7144012 35.3996984,28.7198341 35.2007937,28.7195798 C34.968676,28.7170413 34.7337928,28.6944455 34.4961119,28.6525146 Z M38.4706838,27.7932201 C38.106531,28.0246532 37.6237133,27.9170625 37.3922803,27.5529098 C37.1608473,27.188757 37.2684379,26.7059393 37.6325907,26.4745063 C37.8707195,26.3231663 38.1004758,26.1470179 38.3228924,25.946388 C38.6432773,25.6573862 39.1372827,25.6828273 39.4262845,26.0032121 C39.7152863,26.323597 39.6898452,26.8176025 39.3694604,27.1066042 C39.0836005,27.3644629 38.7844835,27.5937884 38.4706838,27.7932201 Z M41.0984473,24.9730412 C40.8711394,25.3397831 40.389567,25.4528168 40.022825,25.225509 C39.6560831,24.9982011 39.5430495,24.5166287 39.7703573,24.1498868 C39.9299501,23.8923973 40.0862729,23.6192699 40.2431892,23.3257843 C40.4466292,22.9452838 40.9200065,22.801748 41.3005071,23.005188 C41.6810076,23.208628 41.8245434,23.6820054 41.6211034,24.0625059 C41.4491807,24.3840585 41.2764862,24.6857905 41.0984473,24.9730412 Z M42.7198618,21.7970613 C42.5347659,22.1868151 42.0687581,22.3527231 41.6790044,22.1676272 C41.2892506,21.9825312 41.1233427,21.5165235 41.3084386,21.1267698 C41.5024564,20.7182292 41.650899,20.426932 41.7968311,20.1776822 C42.0148351,19.8053346 42.4934096,19.6802144 42.8657572,19.8982185 C43.2381048,20.1162225 43.363225,20.594797 43.145221,20.9671446 C43.0270638,21.1689553 42.8961428,21.425869 42.7198618,21.7970613 Z" id="Path-14" fill="#2B2B2B" fill-rule="nonzero"></path>
        </g>
    </g>
</svg>