<?xml version="1.0" encoding="UTF-8"?>
<svg width="64px" height="64px" viewBox="0 0 64 64" version="1.1" xmlns="http://www.w3.org/2000/svg" xmlns:xlink="http://www.w3.org/1999/xlink">
    <!-- Generator: Sketch 49.1 (51147) - http://www.bohemiancoding.com/sketch -->
    <title>balance</title>
    <desc>Created with Sketch.</desc>
    <defs>
        <path d="M2.48959501,4.88888889 C1.5334583,4.90908228 0.803487473,5.67116735 0.823294939,6.59143947 C0.924274063,11.2821193 3.1006428,13.6274595 7.35242046,13.6274595 C11.606432,13.6274595 13.7735746,11.2796543 13.8538485,6.58404387 C13.8540108,6.57454863 13.854092,6.56505218 13.854092,6.55555556 C13.854092,5.63508224 13.1079009,4.88889118 12.1874276,4.88889118 L2.48959501,4.88888889 Z" id="path-1"></path>
        <path d="M2.50440503,4.88888889 C2.4851192,4.88888889 2.46583483,4.88922364 2.44656062,4.88989298 C1.52663795,4.92183957 0.806791097,5.69348206 0.838737681,6.61340474 C0.995722453,11.1337458 3.18960311,13.3939164 7.42038442,13.3939164 C11.6629091,13.3939164 13.8116583,11.1211812 13.866632,6.57571095 C13.8667539,5.63508468 13.1205648,4.8888956 12.2000939,4.8888956 L2.50440503,4.88888889 Z" id="path-2"></path>
        <path d="M27.9933332,1.66666667 C26.152384,1.66666667 24.6599998,3.15905083 24.6599998,5 L24.6599998,39.6666667 C24.6599998,41.5076158 26.152384,43 27.9933332,43 C29.8342823,43 31.3266665,41.5076158 31.3266665,39.6666667 L31.3266665,5 C31.3266665,3.15905083 29.8342823,1.66666667 27.9933332,1.66666667 Z" id="path-3"></path>
        <path d="M35.1275235,41.2222222 L36.5714286,41.2222222 C38.4649763,41.2222222 40,42.8140987 40,44.7777778 L40,48.3333333 L16,48.3333333 L16,44.7777778 C16,42.8140987 17.5350237,41.2222222 19.4285714,41.2222222 L20.8293697,41.2222222 C20.9080368,41.2276906 20.9874144,41.2304687 21.0674177,41.2304687 C22.9518895,41.2304687 24.4892012,39.6890489 24.5709398,37.7556746 C24.8480427,37.6973074 25.1348566,37.6666667 25.4285714,37.6666667 C26.3933765,37.6666667 29.6066235,37.6666667 30.5714286,37.6666667 C30.8692684,37.6666667 31.160012,37.698174 31.4407294,37.7581501 C31.4595378,39.6820688 32.9692886,41.2356771 34.8289446,41.2356771 C34.9295553,41.2356771 35.0291418,41.2311297 35.1275235,41.2222222 Z" id="path-4"></path>
    </defs>
    <g id="balance" stroke="none" stroke-width="1" fill="none" fill-rule="evenodd">
        <rect id="Rectangle" x="0" y="0" width="64" height="64"></rect>
        <g id="Group-2" transform="translate(4.000000, 9.000000)">
            <path d="M41,46 L45.8400002,46 C46.8525222,46 47.6733335,46.8208113 47.6733335,47.8333333 C47.6733335,48.8458554 46.8525222,49.6666667 45.8400002,49.6666667 L10.1733335,49.6666667 C9.16081144,49.6666667 8.34000015,48.8458554 8.34000015,47.8333333 C8.34000015,46.8208113 9.16081144,46 10.1733335,46 L15,46 L15,44.7777778 C15,42.2697875 16.974438,40.2222222 19.4285714,40.2222222 L20.8987152,40.2246295 C20.9546131,40.2285151 21.0108621,40.2304687 21.0674177,40.2304687 C22.4017869,40.2304687 23.5121315,39.1255471 23.5718324,37.7134346 C23.577375,37.5823334 23.6082342,37.457101 23.6599998,37.3429444 L23.6599998,10.4067324 L14.0693778,7.84923321 L15.2420087,9.12545013 C15.3333316,9.22484016 15.4007375,9.33772399 15.4445257,9.45702419 C15.7118706,9.87772522 15.8666548,10.3798309 15.8665589,10.9211376 C15.8051399,15.9995369 13.2262337,18.7272497 8.42038442,18.7272497 C3.63606221,18.7272497 1.01454837,16.0265261 0.839340135,10.9814446 C0.808788365,10.1016865 1.20797376,9.30668774 1.84839531,8.79851264 L5.8177455,4.4785243 C5.93099018,4.355276 6.05102952,4.24199739 6.17676186,4.13873508 C6.18673889,4.04634049 6.20388213,3.9535286 6.22856928,3.86095181 C6.48945839,2.88261763 7.49404735,2.3010135 8.47238153,2.56190261 L23.6599998,6.61193416 L23.6599998,5 C23.6599998,2.60676608 25.6000993,0.666666667 27.9933332,0.666666667 C30.3865671,0.666666667 32.3266665,2.60676608 32.3266665,5 L32.3266665,8.92304527 L48.4723815,13.2285693 C49.190684,13.4201166 49.6951237,14.0125657 49.8092736,14.7011794 C49.9068392,14.7736776 50.001589,14.8519462 50.0930725,14.9360042 C50.1657184,15.0027538 50.2355097,15.072545 50.3022592,15.145191 L54.5720105,19.7921168 C54.6697922,19.8985361 54.7401541,20.0204254 54.7834639,20.1490968 C55.0374159,20.5573887 55.1840938,21.0393429 55.1840938,21.5555556 C55.1840289,21.5783473 55.1840289,21.5783473 55.1837042,21.6011369 C55.0944524,26.8219114 52.5047899,29.6274595 47.6824223,29.6274595 C42.8642563,29.6274595 40.2657795,26.8272455 40.1535283,21.612958 C40.1345343,20.7304777 40.5446167,19.9440232 41.1963307,19.4456616 L44.4159354,15.9416486 L32.3266665,12.7178435 L32.3266665,37.2942223 C32.3983581,37.43098 32.4390914,37.5857032 32.4406816,37.7483745 C32.4542204,39.1332624 33.5274553,40.2356771 34.8289446,40.2356771 C34.898945,40.2356771 34.9684452,40.2325348 35.0373526,40.2262959 L35.1275235,40.2222222 L36.5714286,40.2222222 C39.025562,40.2222222 41,42.2697875 41,44.7777778 L41,46 Z" id="Combined-Shape" fill="#FFFFFF" fill-rule="nonzero"></path>
            <g id="Group" transform="translate(40.330002, 15.000000)">
                <g id="Rectangle-111">
                    <use fill="#BDCFD1" fill-rule="evenodd" xlink:href="#path-1"></use>
                    <path stroke="#2B2B2B" stroke-width="1.66666667" d="M2.49973372,5.72222222 C2.01053398,5.73626928 1.64652445,6.11304023 1.65643524,6.57350395 C1.7480212,10.8278526 3.57263759,12.7941262 7.35242046,12.7941262 C11.1328018,12.7941262 12.9478447,10.8277734 13.0206369,6.56979969 C13.0207383,6.56267797 13.0207383,6.56267797 13.0207586,6.55555556 C13.0207586,6.09531953 12.6476636,5.72222451 12.1874274,5.72222451 L2.49973372,5.72222222 Z"></path>
                </g>
                <path d="M2.51161776,6.59636 L1.28435302,5.468708 L5.55410434,0.821782171 C6.48828185,-0.194917225 8.06978006,-0.261814432 9.08647946,0.672363077 C9.13836942,0.72004132 9.18822031,0.769892204 9.23589855,0.821782171 L13.5056499,5.468708 L12.2783851,6.59636 L8.00863381,1.94943418 C7.99274107,1.93213752 7.97612411,1.91552056 7.95882745,1.89962781 C7.61992765,1.58823531 7.09276158,1.61053438 6.78136908,1.94943418 L2.51161776,6.59636 Z" id="Path-59" fill="#2B2B2B" fill-rule="nonzero"></path>
            </g>
            <g id="Group-Copy" transform="translate(1.000000, 4.333333)">
                <g id="Rectangle-111">
                    <use fill="#BDCFD1" fill-rule="evenodd" xlink:href="#path-2"></use>
                    <path stroke="#2B2B2B" stroke-width="1.66666667" d="M2.50440503,5.72222222 C2.48994098,5.72230591 2.48994098,5.72230591 2.47548274,5.72272427 C2.01552009,5.73869761 1.65559563,6.12451996 1.67156894,6.58448174 C1.81336757,10.6675411 3.65088832,12.560583 7.42038442,12.560583 C11.193472,12.560583 12.983757,10.6669959 13.0332987,6.57560297 C13.0333607,6.09686123 12.6618507,5.72222893 12.2000933,5.72222893 L2.50440445,5.72222222 Z"></path>
                </g>
                <path d="M2.51161776,6.59636 L1.28435302,5.468708 L5.55410434,0.821782171 C6.48828185,-0.194917225 8.06978006,-0.261814432 9.08647946,0.672363077 C9.13836942,0.72004132 9.18822031,0.769892204 9.23589855,0.821782171 L13.5056499,5.468708 L12.2783851,6.59636 L8.00863381,1.94943418 C7.99274107,1.93213752 7.97612411,1.91552056 7.95882745,1.89962781 C7.61992765,1.58823531 7.09276158,1.61053438 6.78136908,1.94943418 L2.51161776,6.59636 Z" id="Path-59" fill="#2B2B2B" fill-rule="nonzero"></path>
            </g>
            <g id="Rectangle-112">
                <use fill="#FFF9ED" fill-rule="evenodd" xlink:href="#path-3"></use>
                <path stroke="#2B2B2B" stroke-width="1.66666667" d="M27.9933332,2.5 C26.6126213,2.5 25.4933332,3.61928813 25.4933332,5 L25.4933332,39.6666667 C25.4933332,41.0473785 26.6126213,42.1666667 27.9933332,42.1666667 C29.3740451,42.1666667 30.4933332,41.0473785 30.4933332,39.6666667 L30.4933332,5 C30.4933332,3.61928813 29.3740451,2.5 27.9933332,2.5 Z"></path>
            </g>
            <path d="M7.78528112,5.13852912 C7.34058377,5.01994316 7.07621826,4.56331181 7.19480422,4.11861446 C7.31339018,3.67391711 7.77002152,3.40955159 8.21471888,3.52813755 L48.2147189,14.1948042 C48.6594162,14.3133902 48.9237817,14.7700215 48.8051958,15.2147189 C48.6866098,15.6594162 48.2299785,15.9237817 47.7852811,15.8051958 L7.78528112,5.13852912 Z" id="Path-58" fill="#2B2B2B" fill-rule="nonzero"></path>
            <g id="Combined-Shape">
                <use fill="#BDCFD1" fill-rule="evenodd" xlink:href="#path-4"></use>
                <path stroke="#2B2B2B" stroke-width="1.66666667" d="M35.1630448,42.0555556 C35.0522413,42.0645114 34.9408125,42.0690104 34.8289446,42.0690104 C32.7516911,42.0690104 31.0315182,40.5272072 30.6750175,38.5015873 C30.6405688,38.50053 30.606037,38.5 30.5714286,38.5 C29.5667695,38.5 29.5667695,38.5 28,38.5 C26.4332305,38.5 26.4332305,38.5 25.4285714,38.5 C25.3916307,38.5 25.3547771,38.5006038 25.3180188,38.5018083 C24.9104258,40.5362434 23.1618528,42.0638021 21.0674177,42.0638021 C20.9684356,42.0638021 20.8697833,42.0603757 20.8293697,42.0555556 L19.4285714,42.0555556 C18.0021785,42.0555556 16.8333333,43.2676913 16.8333333,44.7777778 L16.8333333,47.5 L39.1666667,47.5 L39.1666667,44.7777778 C39.1666667,43.2676913 37.9978215,42.0555556 36.5714286,42.0555556 L35.1630448,42.0555556 Z"></path>
            </g>
            <path d="M10.1733335,47 C9.71309619,47 9.34000015,47.373096 9.34000015,47.8333333 C9.34000015,48.2935706 9.71309619,48.6666667 10.1733335,48.6666667 L45.8400002,48.6666667 C46.3002374,48.6666667 46.6733335,48.2935706 46.6733335,47.8333333 C46.6733335,47.373096 46.3002374,47 45.8400002,47 L10.1733335,47 Z" id="Rectangle-113" fill="#2B2B2B" opacity="0.900000036"></path>
            <circle id="Oval-48" stroke="#2B2B2B" stroke-width="1.66666667" fill="#FFC300" cx="27.9933332" cy="12.3333333" r="5.33333333"></circle>
        </g>
    </g>
</svg>