<?xml version="1.0" encoding="UTF-8"?>
<svg width="64px" height="64px" viewBox="0 0 64 64" version="1.1" xmlns="http://www.w3.org/2000/svg" xmlns:xlink="http://www.w3.org/1999/xlink">
    <!-- Generator: Sketch 49.1 (51147) - http://www.bohemiancoding.com/sketch -->
    <title>beaker flask</title>
    <desc>Created with Sketch.</desc>
    <defs>
        <path d="M3.84895833,22.5625 L3.5,32.8678385 L9.56483652,45.7671421 C10.0800549,46.8629603 11.1819576,47.5625 12.3928529,47.5625 L22.2757161,47.5625 C24.001606,47.5625 25.4007161,46.1633898 25.4007161,44.4375 L25.4007161,22.5625 L3.84895833,22.5625 Z" id="path-1"></path>
        <path d="M35.6875,31.46875 L44.179985,46.3305987 C45.4644067,48.5783368 44.6834846,51.441718 42.4357465,52.7261397 C41.7274761,53.1308657 40.9258465,53.34375 40.1100953,53.34375 L18.7649047,53.34375 C16.17607,53.34375 14.0774047,51.2450848 14.0774047,48.65625 C14.0774047,47.8404987 14.290289,47.0388692 14.695015,46.3305987 L23.1875,31.46875 L23.1875,14.28125 L35.6875,14.28125 L35.6875,31.46875 Z" id="path-2"></path>
    </defs>
    <g id="beaker-flask" stroke="none" stroke-width="1" fill="none" fill-rule="evenodd">
        <rect id="Rectangle" x="0" y="0" width="64" height="64"></rect>
        <g id="Group" transform="translate(8.333333, 4.333333)">
            <path d="M2.49241021,25.125 L1.78125,25.125 C0.797492789,25.125 -1.76525461e-14,24.3275072 -1.77635684e-14,23.34375 C-1.7985613e-14,22.3599928 0.797492789,21.5625 1.78125,21.5625 L22.1875,21.5625 L22.1875,16.84375 L20.84375,16.84375 C19.8599928,16.84375 19.0625,16.0462572 19.0625,15.0625 C19.0625,14.0787428 19.8599928,13.28125 20.84375,13.28125 L38.03125,13.28125 C39.0150072,13.28125 39.8125,14.0787428 39.8125,15.0625 C39.8125,16.0462572 39.0150072,16.84375 38.03125,16.84375 L36.6875,16.84375 L36.6875,31.2031856 L45.0482281,45.8344598 C46.6066598,48.5617153 45.6591409,52.0359512 42.9318855,53.5943829 C42.0725173,54.0854504 41.0998735,54.34375 40.1100953,54.34375 L18.7649047,54.34375 C15.6237852,54.34375 13.0774047,51.7973695 13.0774047,48.65625 C13.0774047,48.6249819 13.0776625,48.5937309 13.0781773,48.5625 L6.61741021,48.5625 C4.33923562,48.5625 2.49241021,46.7156746 2.49241021,44.4375 L2.49241021,25.125 Z M17.5625,8.25 C15.2843254,8.25 13.4375,6.40317459 13.4375,4.125 C13.4375,1.84682541 15.2843254,-1.77635684e-14 17.5625,-1.77635684e-14 C19.8406746,-1.77635684e-14 21.6875,1.84682541 21.6875,4.125 C21.6875,6.40317459 19.8406746,8.25 17.5625,8.25 Z" id="Combined-Shape" fill="#FFFFFF" fill-rule="nonzero"></path>
            <g id="Rectangle-17" transform="translate(14.450358, 35.062500) scale(-1, 1) translate(-14.450358, -35.062500) ">
                <use fill="#FFFDFE" fill-rule="evenodd" xlink:href="#path-1"></use>
                <path stroke="#2B2B2B" stroke-width="1.5625" d="M4.6042015,23.34375 L4.28717952,32.7059531 L10.2718406,45.4347316 C10.6582544,46.2565952 11.4846814,46.78125 12.3928529,46.78125 L22.2757161,46.78125 C23.5701335,46.78125 24.6194661,45.7319174 24.6194661,44.4375 L24.6194661,23.34375 L4.6042015,23.34375 Z"></path>
            </g>
            <polygon id="Rectangle-17" fill="#BDF3FB" points="6.625 34.4375 22.5560913 34.4375 16.8370972 44.4375 6.625 44.4375"></polygon>
            <g id="Combined-Shape">
                <use fill="#FFFCF8" fill-rule="evenodd" xlink:href="#path-2"></use>
                <path stroke="#2B2B2B" stroke-width="1.5625" d="M34.90625,15.0625 L23.96875,15.0625 L23.96875,31.6762222 L15.37333,46.7182073 C15.0360583,47.3084326 14.8586547,47.9764573 14.8586547,48.65625 C14.8586547,50.8136123 16.6075424,52.5625 18.7649047,52.5625 L40.1100953,52.5625 C40.789888,52.5625 41.4579126,52.3850964 42.048138,52.0478248 C43.921253,50.9774733 44.5720215,48.5913223 43.50167,46.7182073 L34.90625,31.6762222 L34.90625,15.0625 Z"></path>
            </g>
            <path d="M20.84375,14.28125 C20.4122775,14.28125 20.0625,14.6310275 20.0625,15.0625 C20.0625,15.4939725 20.4122775,15.84375 20.84375,15.84375 L38.03125,15.84375 C38.4627225,15.84375 38.8125,15.4939725 38.8125,15.0625 C38.8125,14.6310275 38.4627225,14.28125 38.03125,14.28125 L20.84375,14.28125 Z" id="Rectangle-16" fill="#2B2B2B"></path>
            <path d="M32.5625,32.0202206 L42.875,50.21875 L16.15625,50.21875 L26.3125,32.0284515 L26.3125,26.46875 L32.5625,26.46875 L32.5625,32.0202206 Z" id="Combined-Shape" fill="#FFC55D"></path>
            <path d="M23.5,25.6875 L28.96875,25.6875 C29.4002225,25.6875 29.75,26.0372775 29.75,26.46875 C29.75,26.9002225 29.4002225,27.25 28.96875,27.25 L23.5,27.25 L23.5,25.6875 Z M23.5,30.375 L28.96875,30.375 C29.4002225,30.375 29.75,30.7247775 29.75,31.15625 C29.75,31.5877225 29.4002225,31.9375 28.96875,31.9375 L23.5,31.9375 L23.5,30.375 Z M21.9375,35.0625 L27.40625,35.0625 C27.8377225,35.0625 28.1875,35.4122775 28.1875,35.84375 C28.1875,36.2752225 27.8377225,36.625 27.40625,36.625 L21.9375,36.625 L21.9375,35.0625 Z M19.28125,39.75 L24.75,39.75 C25.1814725,39.75 25.53125,40.0997775 25.53125,40.53125 C25.53125,40.9627225 25.1814725,41.3125 24.75,41.3125 L19.28125,41.3125 L19.28125,39.75 Z" id="Combined-Shape" fill="#2B2B2B"></path>
            <path d="M5.0625,28.96875 L10.53125,28.96875 C10.9627225,28.96875 11.3125,29.3185275 11.3125,29.75 C11.3125,30.1814725 10.9627225,30.53125 10.53125,30.53125 L5.0625,30.53125 L5.0625,28.96875 Z M5.0625,33.65625 L10.53125,33.65625 C10.9627225,33.65625 11.3125,34.0060275 11.3125,34.4375 C11.3125,34.8689725 10.9627225,35.21875 10.53125,35.21875 L5.0625,35.21875 L5.0625,33.65625 Z M5.0625,38.34375 L10.53125,38.34375 C10.9627225,38.34375 11.3125,38.6935275 11.3125,39.125 C11.3125,39.5564725 10.9627225,39.90625 10.53125,39.90625 L5.0625,39.90625 L5.0625,38.34375 Z" id="Combined-Shape" fill="#2B2B2B"></path>
            <path d="M1.78125,22.5625 C1.34977754,22.5625 1,22.9122775 1,23.34375 C1,23.7752225 1.34977754,24.125 1.78125,24.125 L23.34375,24.125 C23.7752225,24.125 24.125,23.7752225 24.125,23.34375 C24.125,22.9122775 23.7752225,22.5625 23.34375,22.5625 L1.78125,22.5625 Z" id="Rectangle-16-Copy" fill="#2B2B2B"></path>
            <circle id="Oval-5" fill="#BDCFD1" cx="10.0625" cy="15.84375" r="2.34375"></circle>
            <path d="M17.5625,5.6875 C18.4254449,5.6875 19.125,4.98794492 19.125,4.125 C19.125,3.26205508 18.4254449,2.5625 17.5625,2.5625 C16.6995551,2.5625 16,3.26205508 16,4.125 C16,4.98794492 16.6995551,5.6875 17.5625,5.6875 Z M17.5625,7.25 C15.8366102,7.25 14.4375,5.85088984 14.4375,4.125 C14.4375,2.39911016 15.8366102,1 17.5625,1 C19.2883898,1 20.6875,2.39911016 20.6875,4.125 C20.6875,5.85088984 19.2883898,7.25 17.5625,7.25 Z" id="Oval-5-Copy" fill="#2B2B2B" fill-rule="nonzero"></path>
            <path d="M34.8937572,1 C35.3252296,1 35.6750072,1.34977754 35.6750072,1.78125 L35.6750072,3.34375 C35.6750072,3.77522246 35.3252296,4.125 34.8937572,4.125 C34.4622847,4.125 34.1125072,3.77522246 34.1125072,3.34375 L34.1125072,1.78125 C34.1125072,1.34977754 34.4622847,1 34.8937572,1 Z M34.8937572,6.625 C35.3252296,6.625 35.6750072,6.97477754 35.6750072,7.40625 L35.6750072,8.96875 C35.6750072,9.40022246 35.3252296,9.75 34.8937572,9.75 C34.4622847,9.75 34.1125072,9.40022246 34.1125072,8.96875 L34.1125072,7.40625 C34.1125072,6.97477754 34.4622847,6.625 34.8937572,6.625 Z M31.104896,3.1875 C31.3206323,2.81383389 31.7984373,2.68580642 32.1721034,2.90154265 L33.5252681,3.68279265 C33.8989342,3.89852888 34.0269617,4.37633389 33.8112254,4.75 C33.5954892,5.12366611 33.1176842,5.25169358 32.7440181,5.03595735 L31.3908534,4.25470735 C31.0171873,4.03897112 30.8891598,3.56116611 31.104896,3.1875 Z M36.2622463,7.06720735 C35.8885802,6.85147112 35.7605527,6.37366611 35.9762889,6 C36.1920252,5.62633389 36.6698302,5.49830642 37.0434963,5.71404265 L38.396661,6.49529265 C38.7703271,6.71102888 38.8983546,7.18883389 38.6826183,7.5625 C38.4668821,7.93616611 37.9890771,8.06419358 37.615411,7.84845735 L36.2622463,7.06720735 Z M38.6826183,3.1875 C38.8983546,3.56116611 38.7703271,4.03897112 38.396661,4.25470735 L37.0434963,5.03595735 C36.6698302,5.25169358 36.1920252,5.12366611 35.9762889,4.75 C35.7605527,4.37633389 35.8885802,3.89852888 36.2622463,3.68279265 L37.615411,2.90154265 C37.9890771,2.68580642 38.4668821,2.81383389 38.6826183,3.1875 Z M33.8112254,6 C34.0269617,6.37366611 33.8989342,6.85147112 33.5252681,7.06720735 L32.1721034,7.84845735 C31.7984373,8.06419358 31.3206323,7.93616611 31.104896,7.5625 C30.8891598,7.18883389 31.0171873,6.71102888 31.3908534,6.49529265 L32.7440181,5.71404265 C33.1176842,5.49830642 33.5954892,5.62633389 33.8112254,6 Z" id="Combined-Shape" fill="#BDCFD1"></path>
        </g>
    </g>
</svg>