<?xml version="1.0" encoding="UTF-8"?>
<svg width="64px" height="64px" viewBox="0 0 64 64" version="1.1" xmlns="http://www.w3.org/2000/svg" xmlns:xlink="http://www.w3.org/1999/xlink">
    <!-- Generator: Sketch 49.1 (51147) - http://www.bohemiancoding.com/sketch -->
    <title>plane</title>
    <desc>Created with Sketch.</desc>
    <defs></defs>
    <g id="plane" stroke="none" stroke-width="1" fill="none" fill-rule="evenodd">
        <rect id="Rectangle" x="0" y="0" width="64" height="64"></rect>
        <g id="Group-2" transform="translate(5.333333, 5.333333)">
            <path d="M13.2797137,22.6645109 L4.71534422,15.1642515 C1.73053532,12.5503006 1.42989549,8.01160904 4.04384637,5.02680014 C4.14820649,4.90763378 4.25647941,4.79195166 4.36848758,4.6799435 C7.17400209,1.87442898 11.7226398,1.87442898 14.5281544,4.6799435 C14.6401625,4.79195166 14.7484354,4.90763378 14.8527956,5.02680014 L22.46356,13.7173527 L46.5610695,9.45376917 L51.5057212,14.3984209 L30.8398481,23.2820386 L37.8897139,31.3321142 L46.3042119,29.9761328 L51.7550677,35.4269887 L43.2280842,39.1802315 L42.3395272,40.0687885 L45.3958998,43.125161 L42.8136973,45.7073635 L39.7573248,42.6509909 L39.1912859,43.2170298 L35.2926295,51.8929443 L29.8631989,46.4635136 L31.1144775,38.2833321 L22.8310879,31.0291412 L13.973599,51.6342312 L9.02894727,46.6895795 L13.2797137,22.6645109 Z" id="Combined-Shape" fill="#FFFFFF" fill-rule="nonzero"></path>
            <polygon id="Rectangle-28" fill="#BDCFD1" transform="translate(14.067554, 40.766204) rotate(-45.000000) translate(-14.067554, -40.766204) " points="10.7573625 40.1462869 17.3777445 36.3987948 17.3645054 41.9749736 10.7573625 45.1336141"></polygon>
            <polygon id="Rectangle-28" fill="#BDCFD1" transform="translate(40.667612, 14.582527) rotate(-45.000000) translate(-40.667612, -14.582527) " points="43.9711834 13.6681837 37.3640405 10.5095431 37.3640405 15.4968703 43.9711834 18.6555108"></polygon>
            <polygon id="Path-11" fill="#2B2B2B" fill-rule="nonzero" transform="translate(14.516352, 35.386496) rotate(-45.000000) translate(-14.516352, -35.386496) " points="24.7372454 34.8589927 25.3159535 36.3103725 3.71675011 44.9226132 3.71675011 39.9260501 23.8439519 25.8503785 24.7394158 27.1308278 5.27925011 40.7400173 5.27925011 42.6174705"></polygon>
            <path d="M25.9585703,7.85505784 L25.3798816,15.0159357 L44.3020546,22.5607653 L44.3020546,20.6833121 L25.9585703,7.85505784 Z M45.8645546,19.8693449 L45.8645546,24.865908 L23.729529,16.0400191 L24.6206715,5.01273813 L45.8645546,19.8693449 Z" id="Path-11" fill="#2B2B2B" fill-rule="nonzero" transform="translate(34.797042, 14.939323) rotate(-45.000000) translate(-34.797042, -14.939323) "></path>
            <polygon id="Path-12" stroke="#2B2B2B" stroke-width="1.5625" fill="#BDCFD1" transform="translate(33.873385, 43.075136) rotate(-45.000000) translate(-33.873385, -43.075136) " points="37.497717 44.9216568 30.2490534 47.6755271 30.2490534 43.4810057 37.0634574 38.4747454"></polygon>
            <polygon id="Path-12" stroke="#2B2B2B" stroke-width="1.5625" fill="#BDCFD1" transform="translate(42.757654, 34.223155) rotate(-45.000000) translate(-42.757654, -34.223155) " points="39.1013098 35.9580247 39.547481 29.6455948 46.4139985 34.6061935 46.4139985 38.800715"></polygon>
            <path d="M24.5496445,46.394146 L27.3198621,4.57279699 C27.3265972,4.47111838 27.3299675,4.36924483 27.3299675,4.2673434 C27.3299675,1.7149764 25.2608653,-0.354125872 22.7084983,-0.354125872 C22.6065968,-0.354125872 22.5047233,-0.350755548 22.4030447,-0.344020426 C19.8562588,-0.175323069 17.9284371,2.02601107 18.0971344,4.57279699 L20.867352,46.394146 L24.5496445,46.394146 Z M22.7084983,-1.91662587 C26.1238102,-1.91662587 28.8924675,0.852031478 28.8924675,4.2673434 C28.8924675,4.40369729 28.8879577,4.54001387 28.8789455,4.6760696 L26.0120697,47.956646 L19.4049268,47.956646 L16.538051,4.6760696 C16.3123178,1.26822571 18.8919282,-1.67737057 22.2997721,-1.90310382 C22.4358278,-1.91211605 22.5721444,-1.91662587 22.7084983,-1.91662587 Z" id="Rectangle-26" fill="#2B2B2B" fill-rule="nonzero" transform="translate(22.708382, 23.020010) rotate(-45.000000) translate(-22.708382, -23.020010) "></path>
            <path d="M21.8253368,1.80292599 L21.8253368,1.80292599 C23.5855897,1.80292599 25.0125566,3.22989291 25.0125566,4.99014581 C25.0125566,5.05443777 25.0106113,5.118715 25.0067233,5.18288929 L22.7338189,42.6990089 L21.0820332,42.6990089 L18.6575469,5.18203809 C18.5444862,3.43251603 19.8711003,1.92259443 21.6206224,1.8095338 C21.6887717,1.80512974 21.7570453,1.80292599 21.8253368,1.80292599 Z" id="Rectangle-26" fill="#BDF3FB" transform="translate(21.831691, 22.250967) rotate(-45.000000) translate(-21.831691, -22.250967) "></path>
            <path d="M6.73709748,10.6406113 L5.17459748,10.6406113 C5.17459748,8.80432814 6.65365679,7.31572651 8.47816891,7.31572651 C10.302681,7.31572651 11.7817403,8.80432814 11.7817403,10.6406113 L10.2192403,10.6406113 C10.2192403,9.66503171 9.43747876,8.87822651 8.47816891,8.87822651 C7.51885906,8.87822651 6.73709748,9.66503171 6.73709748,10.6406113 Z" id="Oval" fill="#2B2B2B" fill-rule="nonzero" transform="translate(8.478169, 8.978169) rotate(-45.000000) translate(-8.478169, -8.978169) "></path>
            <rect id="Rectangle-27" fill="#2B2B2B" transform="translate(39.871119, 40.182583) rotate(-45.000000) translate(-39.871119, -40.182583) " x="39.045226" y="35.1952554" width="1.65178571" height="9.97465438"></rect>
        </g>
    </g>
</svg>